<mxfile host="app.diagrams.net" agent="Mozilla/5.0 (Windows NT 10.0; Win64; x64) AppleWebKit/537.36 (KHTML, like Gecko) Chrome/133.0.0.0 Safari/537.36" version="26.0.14">
  <diagram name="Page-1" id="RNJy3FhXbEkKiUze5Ja7">
    <mxGraphModel dx="2345" dy="1013" grid="1" gridSize="10" guides="1" tooltips="1" connect="1" arrows="1" fold="1" page="1" pageScale="1" pageWidth="850" pageHeight="1100" math="0" shadow="0">
      <root>
        <mxCell id="0" />
        <mxCell id="1" parent="0" />
        <mxCell id="AHnlYJfSwKm474h9auV9-3" value="" style="edgeStyle=orthogonalEdgeStyle;rounded=0;orthogonalLoop=1;jettySize=auto;html=1;" parent="1" source="AHnlYJfSwKm474h9auV9-1" target="AHnlYJfSwKm474h9auV9-2" edge="1">
          <mxGeometry relative="1" as="geometry" />
        </mxCell>
        <mxCell id="AHnlYJfSwKm474h9auV9-1" value="LOGIN" style="rounded=1;whiteSpace=wrap;html=1;" parent="1" vertex="1">
          <mxGeometry x="360" y="10" width="120" height="40" as="geometry" />
        </mxCell>
        <mxCell id="AHnlYJfSwKm474h9auV9-9" value="" style="edgeStyle=orthogonalEdgeStyle;rounded=0;orthogonalLoop=1;jettySize=auto;html=1;entryX=0;entryY=0.5;entryDx=0;entryDy=0;exitX=0;exitY=0.5;exitDx=0;exitDy=0;" parent="1" edge="1">
          <mxGeometry relative="1" as="geometry">
            <mxPoint x="370" y="152" as="sourcePoint" />
            <mxPoint x="360" y="27" as="targetPoint" />
            <Array as="points">
              <mxPoint x="370" y="157" />
              <mxPoint x="291" y="157" />
              <mxPoint x="291" y="27" />
            </Array>
          </mxGeometry>
        </mxCell>
        <mxCell id="AHnlYJfSwKm474h9auV9-13" value="" style="edgeStyle=orthogonalEdgeStyle;rounded=0;orthogonalLoop=1;jettySize=auto;html=1;" parent="1" source="AHnlYJfSwKm474h9auV9-2" edge="1">
          <mxGeometry relative="1" as="geometry">
            <mxPoint x="420" y="250" as="targetPoint" />
          </mxGeometry>
        </mxCell>
        <mxCell id="AHnlYJfSwKm474h9auV9-2" value="Jika Menuliskan&amp;nbsp; ID : admin" style="rhombus;whiteSpace=wrap;html=1;" parent="1" vertex="1">
          <mxGeometry x="370" y="100" width="100" height="110" as="geometry" />
        </mxCell>
        <mxCell id="AHnlYJfSwKm474h9auV9-6" value="YA" style="text;html=1;align=center;verticalAlign=middle;resizable=0;points=[];autosize=1;strokeColor=none;fillColor=none;" parent="1" vertex="1">
          <mxGeometry x="410" y="210" width="40" height="30" as="geometry" />
        </mxCell>
        <mxCell id="AHnlYJfSwKm474h9auV9-36" value="" style="edgeStyle=orthogonalEdgeStyle;rounded=0;orthogonalLoop=1;jettySize=auto;html=1;" parent="1" source="AHnlYJfSwKm474h9auV9-14" target="AHnlYJfSwKm474h9auV9-28" edge="1">
          <mxGeometry relative="1" as="geometry" />
        </mxCell>
        <mxCell id="AHnlYJfSwKm474h9auV9-14" value="Menampilkan Halaman Rental Mobil Admin" style="rounded=0;whiteSpace=wrap;html=1;" parent="1" vertex="1">
          <mxGeometry x="360" y="250" width="120" height="60" as="geometry" />
        </mxCell>
        <mxCell id="AHnlYJfSwKm474h9auV9-19" value="A" style="ellipse;whiteSpace=wrap;html=1;aspect=fixed;" parent="1" vertex="1">
          <mxGeometry x="510" y="360" width="60" height="60" as="geometry" />
        </mxCell>
        <mxCell id="AHnlYJfSwKm474h9auV9-37" value="" style="edgeStyle=orthogonalEdgeStyle;rounded=0;orthogonalLoop=1;jettySize=auto;html=1;" parent="1" source="AHnlYJfSwKm474h9auV9-28" target="AHnlYJfSwKm474h9auV9-31" edge="1">
          <mxGeometry relative="1" as="geometry" />
        </mxCell>
        <mxCell id="AHnlYJfSwKm474h9auV9-54" value="" style="edgeStyle=orthogonalEdgeStyle;rounded=0;orthogonalLoop=1;jettySize=auto;html=1;" parent="1" source="AHnlYJfSwKm474h9auV9-28" target="AHnlYJfSwKm474h9auV9-19" edge="1">
          <mxGeometry relative="1" as="geometry" />
        </mxCell>
        <mxCell id="AHnlYJfSwKm474h9auV9-28" value="&lt;div&gt;&lt;br&gt;&lt;/div&gt;Admin Memilih menu 1" style="rhombus;whiteSpace=wrap;html=1;rounded=0;" parent="1" vertex="1">
          <mxGeometry x="370" y="340" width="100" height="100" as="geometry" />
        </mxCell>
        <mxCell id="AHnlYJfSwKm474h9auV9-38" value="" style="edgeStyle=orthogonalEdgeStyle;rounded=0;orthogonalLoop=1;jettySize=auto;html=1;" parent="1" source="AHnlYJfSwKm474h9auV9-31" target="AHnlYJfSwKm474h9auV9-32" edge="1">
          <mxGeometry relative="1" as="geometry" />
        </mxCell>
        <mxCell id="AHnlYJfSwKm474h9auV9-55" value="" style="edgeStyle=orthogonalEdgeStyle;rounded=0;orthogonalLoop=1;jettySize=auto;html=1;" parent="1" source="AHnlYJfSwKm474h9auV9-31" target="AHnlYJfSwKm474h9auV9-52" edge="1">
          <mxGeometry relative="1" as="geometry" />
        </mxCell>
        <mxCell id="AHnlYJfSwKm474h9auV9-31" value="&lt;div&gt;&lt;br&gt;&lt;/div&gt;Admin Memilih menu 2" style="rhombus;whiteSpace=wrap;html=1;rounded=0;" parent="1" vertex="1">
          <mxGeometry x="370" y="470" width="100" height="100" as="geometry" />
        </mxCell>
        <mxCell id="AHnlYJfSwKm474h9auV9-39" value="" style="edgeStyle=orthogonalEdgeStyle;rounded=0;orthogonalLoop=1;jettySize=auto;html=1;" parent="1" source="AHnlYJfSwKm474h9auV9-32" target="AHnlYJfSwKm474h9auV9-33" edge="1">
          <mxGeometry relative="1" as="geometry" />
        </mxCell>
        <mxCell id="AHnlYJfSwKm474h9auV9-56" value="" style="edgeStyle=orthogonalEdgeStyle;rounded=0;orthogonalLoop=1;jettySize=auto;html=1;" parent="1" source="AHnlYJfSwKm474h9auV9-32" target="AHnlYJfSwKm474h9auV9-51" edge="1">
          <mxGeometry relative="1" as="geometry" />
        </mxCell>
        <mxCell id="AHnlYJfSwKm474h9auV9-32" value="&lt;div&gt;&lt;br&gt;&lt;/div&gt;Admin Memilih menu 3" style="rhombus;whiteSpace=wrap;html=1;rounded=0;" parent="1" vertex="1">
          <mxGeometry x="370" y="600" width="100" height="100" as="geometry" />
        </mxCell>
        <mxCell id="AHnlYJfSwKm474h9auV9-40" value="" style="edgeStyle=orthogonalEdgeStyle;rounded=0;orthogonalLoop=1;jettySize=auto;html=1;" parent="1" source="AHnlYJfSwKm474h9auV9-33" target="AHnlYJfSwKm474h9auV9-34" edge="1">
          <mxGeometry relative="1" as="geometry" />
        </mxCell>
        <mxCell id="AHnlYJfSwKm474h9auV9-57" value="" style="edgeStyle=orthogonalEdgeStyle;rounded=0;orthogonalLoop=1;jettySize=auto;html=1;" parent="1" source="AHnlYJfSwKm474h9auV9-33" target="AHnlYJfSwKm474h9auV9-50" edge="1">
          <mxGeometry relative="1" as="geometry" />
        </mxCell>
        <mxCell id="AHnlYJfSwKm474h9auV9-33" value="&lt;div&gt;&lt;br&gt;&lt;/div&gt;Admin Memilih menu 4" style="rhombus;whiteSpace=wrap;html=1;rounded=0;" parent="1" vertex="1">
          <mxGeometry x="370" y="730" width="100" height="100" as="geometry" />
        </mxCell>
        <mxCell id="AHnlYJfSwKm474h9auV9-44" value="" style="edgeStyle=orthogonalEdgeStyle;rounded=0;orthogonalLoop=1;jettySize=auto;html=1;" parent="1" source="AHnlYJfSwKm474h9auV9-34" target="AHnlYJfSwKm474h9auV9-43" edge="1">
          <mxGeometry relative="1" as="geometry" />
        </mxCell>
        <mxCell id="AHnlYJfSwKm474h9auV9-48" value="" style="edgeStyle=orthogonalEdgeStyle;rounded=0;orthogonalLoop=1;jettySize=auto;html=1;entryX=0;entryY=0.5;entryDx=0;entryDy=0;" parent="1" source="AHnlYJfSwKm474h9auV9-34" target="AHnlYJfSwKm474h9auV9-14" edge="1">
          <mxGeometry relative="1" as="geometry">
            <mxPoint x="220" y="280" as="targetPoint" />
            <Array as="points">
              <mxPoint x="221" y="910" />
              <mxPoint x="221" y="280" />
            </Array>
          </mxGeometry>
        </mxCell>
        <mxCell id="AHnlYJfSwKm474h9auV9-34" value="&lt;div&gt;&lt;br&gt;&lt;/div&gt;Admin Memilih menu 5" style="rhombus;whiteSpace=wrap;html=1;rounded=0;" parent="1" vertex="1">
          <mxGeometry x="370" y="860" width="100" height="100" as="geometry" />
        </mxCell>
        <mxCell id="AHnlYJfSwKm474h9auV9-43" value="SELESAI" style="rounded=1;whiteSpace=wrap;html=1;" parent="1" vertex="1">
          <mxGeometry x="370" y="1000" width="100" height="50" as="geometry" />
        </mxCell>
        <mxCell id="AHnlYJfSwKm474h9auV9-50" value="D" style="ellipse;whiteSpace=wrap;html=1;aspect=fixed;" parent="1" vertex="1">
          <mxGeometry x="510" y="750" width="60" height="60" as="geometry" />
        </mxCell>
        <mxCell id="AHnlYJfSwKm474h9auV9-51" value="C" style="ellipse;whiteSpace=wrap;html=1;aspect=fixed;" parent="1" vertex="1">
          <mxGeometry x="510" y="620" width="60" height="60" as="geometry" />
        </mxCell>
        <mxCell id="AHnlYJfSwKm474h9auV9-52" value="B" style="ellipse;whiteSpace=wrap;html=1;aspect=fixed;" parent="1" vertex="1">
          <mxGeometry x="510" y="490" width="60" height="60" as="geometry" />
        </mxCell>
        <mxCell id="AHnlYJfSwKm474h9auV9-58" value="&lt;font style=&quot;font-size: 36px;&quot;&gt;&lt;b&gt;ADMIN&lt;/b&gt;&lt;/font&gt;" style="text;html=1;align=center;verticalAlign=middle;resizable=0;points=[];autosize=1;strokeColor=none;fillColor=none;" parent="1" vertex="1">
          <mxGeometry x="10" y="10" width="140" height="60" as="geometry" />
        </mxCell>
        <mxCell id="AHnlYJfSwKm474h9auV9-61" value="" style="edgeStyle=orthogonalEdgeStyle;rounded=0;orthogonalLoop=1;jettySize=auto;html=1;" parent="1" source="AHnlYJfSwKm474h9auV9-59" target="AHnlYJfSwKm474h9auV9-60" edge="1">
          <mxGeometry relative="1" as="geometry" />
        </mxCell>
        <mxCell id="AHnlYJfSwKm474h9auV9-59" value="A" style="ellipse;whiteSpace=wrap;html=1;aspect=fixed;" parent="1" vertex="1">
          <mxGeometry x="1245" width="60" height="60" as="geometry" />
        </mxCell>
        <mxCell id="AHnlYJfSwKm474h9auV9-77" value="" style="edgeStyle=orthogonalEdgeStyle;rounded=0;orthogonalLoop=1;jettySize=auto;html=1;" parent="1" source="AHnlYJfSwKm474h9auV9-60" target="AHnlYJfSwKm474h9auV9-76" edge="1">
          <mxGeometry relative="1" as="geometry" />
        </mxCell>
        <mxCell id="AHnlYJfSwKm474h9auV9-60" value="masukkan nama mobil" style="whiteSpace=wrap;html=1;" parent="1" vertex="1">
          <mxGeometry x="1223" y="100" width="105" height="50" as="geometry" />
        </mxCell>
        <mxCell id="AHnlYJfSwKm474h9auV9-62" value="YA" style="text;html=1;align=center;verticalAlign=middle;resizable=0;points=[];autosize=1;strokeColor=none;fillColor=none;" parent="1" vertex="1">
          <mxGeometry x="460" y="360" width="40" height="30" as="geometry" />
        </mxCell>
        <mxCell id="AHnlYJfSwKm474h9auV9-65" value="TIDAK" style="text;html=1;align=center;verticalAlign=middle;resizable=0;points=[];autosize=1;strokeColor=none;fillColor=none;" parent="1" vertex="1">
          <mxGeometry x="300" y="130" width="60" height="30" as="geometry" />
        </mxCell>
        <mxCell id="AHnlYJfSwKm474h9auV9-66" value="YA" style="text;html=1;align=center;verticalAlign=middle;resizable=0;points=[];autosize=1;strokeColor=none;fillColor=none;" parent="1" vertex="1">
          <mxGeometry x="460" y="490" width="40" height="30" as="geometry" />
        </mxCell>
        <mxCell id="AHnlYJfSwKm474h9auV9-67" value="TIDAK" style="text;html=1;align=center;verticalAlign=middle;resizable=0;points=[];autosize=1;strokeColor=none;fillColor=none;" parent="1" vertex="1">
          <mxGeometry x="370" y="435" width="60" height="30" as="geometry" />
        </mxCell>
        <mxCell id="AHnlYJfSwKm474h9auV9-68" value="YA" style="text;html=1;align=center;verticalAlign=middle;resizable=0;points=[];autosize=1;strokeColor=none;fillColor=none;" parent="1" vertex="1">
          <mxGeometry x="460" y="620" width="40" height="30" as="geometry" />
        </mxCell>
        <mxCell id="AHnlYJfSwKm474h9auV9-69" value="YA" style="text;html=1;align=center;verticalAlign=middle;resizable=0;points=[];autosize=1;strokeColor=none;fillColor=none;" parent="1" vertex="1">
          <mxGeometry x="460" y="750" width="40" height="30" as="geometry" />
        </mxCell>
        <mxCell id="AHnlYJfSwKm474h9auV9-70" value="YA" style="text;html=1;align=center;verticalAlign=middle;resizable=0;points=[];autosize=1;strokeColor=none;fillColor=none;" parent="1" vertex="1">
          <mxGeometry x="420" y="960" width="40" height="30" as="geometry" />
        </mxCell>
        <mxCell id="AHnlYJfSwKm474h9auV9-71" value="TIDAK" style="text;html=1;align=center;verticalAlign=middle;resizable=0;points=[];autosize=1;strokeColor=none;fillColor=none;" parent="1" vertex="1">
          <mxGeometry x="360" y="570" width="60" height="30" as="geometry" />
        </mxCell>
        <mxCell id="AHnlYJfSwKm474h9auV9-72" value="TIDAK" style="text;html=1;align=center;verticalAlign=middle;resizable=0;points=[];autosize=1;strokeColor=none;fillColor=none;" parent="1" vertex="1">
          <mxGeometry x="360" y="690" width="60" height="30" as="geometry" />
        </mxCell>
        <mxCell id="AHnlYJfSwKm474h9auV9-73" value="TIDAK" style="text;html=1;align=center;verticalAlign=middle;resizable=0;points=[];autosize=1;strokeColor=none;fillColor=none;" parent="1" vertex="1">
          <mxGeometry x="360" y="830" width="60" height="30" as="geometry" />
        </mxCell>
        <mxCell id="AHnlYJfSwKm474h9auV9-74" value="TIDAK" style="text;html=1;align=center;verticalAlign=middle;resizable=0;points=[];autosize=1;strokeColor=none;fillColor=none;" parent="1" vertex="1">
          <mxGeometry x="280" y="880" width="60" height="30" as="geometry" />
        </mxCell>
        <mxCell id="AHnlYJfSwKm474h9auV9-81" value="" style="edgeStyle=orthogonalEdgeStyle;rounded=0;orthogonalLoop=1;jettySize=auto;html=1;" parent="1" source="AHnlYJfSwKm474h9auV9-76" target="AHnlYJfSwKm474h9auV9-79" edge="1">
          <mxGeometry relative="1" as="geometry" />
        </mxCell>
        <mxCell id="AHnlYJfSwKm474h9auV9-85" value="" style="edgeStyle=orthogonalEdgeStyle;rounded=0;orthogonalLoop=1;jettySize=auto;html=1;entryX=0.5;entryY=1;entryDx=0;entryDy=0;" parent="1" source="AHnlYJfSwKm474h9auV9-76" edge="1">
          <mxGeometry relative="1" as="geometry">
            <mxPoint x="960" y="140" as="targetPoint" />
          </mxGeometry>
        </mxCell>
        <mxCell id="AHnlYJfSwKm474h9auV9-76" value="Masukkan Harga sewa perhari" style="rhombus;whiteSpace=wrap;html=1;" parent="1" vertex="1">
          <mxGeometry x="1233.25" y="190" width="84.5" height="95" as="geometry" />
        </mxCell>
        <mxCell id="AHnlYJfSwKm474h9auV9-82" value="" style="edgeStyle=orthogonalEdgeStyle;rounded=0;orthogonalLoop=1;jettySize=auto;html=1;" parent="1" source="AHnlYJfSwKm474h9auV9-79" target="AHnlYJfSwKm474h9auV9-80" edge="1">
          <mxGeometry relative="1" as="geometry" />
        </mxCell>
        <mxCell id="AHnlYJfSwKm474h9auV9-87" value="" style="edgeStyle=orthogonalEdgeStyle;rounded=0;orthogonalLoop=1;jettySize=auto;html=1;" parent="1" source="AHnlYJfSwKm474h9auV9-79" edge="1">
          <mxGeometry relative="1" as="geometry">
            <mxPoint x="960" y="140" as="targetPoint" />
          </mxGeometry>
        </mxCell>
        <mxCell id="AHnlYJfSwKm474h9auV9-79" value="Masukkan Harga sewa perminggu" style="rhombus;whiteSpace=wrap;html=1;" parent="1" vertex="1">
          <mxGeometry x="1233.25" y="310" width="84.5" height="95" as="geometry" />
        </mxCell>
        <mxCell id="AHnlYJfSwKm474h9auV9-89" value="" style="edgeStyle=orthogonalEdgeStyle;rounded=0;orthogonalLoop=1;jettySize=auto;html=1;entryX=0.5;entryY=1;entryDx=0;entryDy=0;" parent="1" source="AHnlYJfSwKm474h9auV9-80" edge="1">
          <mxGeometry relative="1" as="geometry">
            <mxPoint x="960" y="140" as="targetPoint" />
          </mxGeometry>
        </mxCell>
        <mxCell id="AHnlYJfSwKm474h9auV9-100" value="" style="edgeStyle=orthogonalEdgeStyle;rounded=0;orthogonalLoop=1;jettySize=auto;html=1;" parent="1" source="AHnlYJfSwKm474h9auV9-80" target="AHnlYJfSwKm474h9auV9-99" edge="1">
          <mxGeometry relative="1" as="geometry" />
        </mxCell>
        <mxCell id="AHnlYJfSwKm474h9auV9-80" value="Masukkan Harga sewa perbulan" style="rhombus;whiteSpace=wrap;html=1;" parent="1" vertex="1">
          <mxGeometry x="1233.25" y="430" width="84.5" height="95" as="geometry" />
        </mxCell>
        <mxCell id="AHnlYJfSwKm474h9auV9-91" value="Error Program karena data yang di input bukan INT" style="rounded=1;whiteSpace=wrap;html=1;" parent="1" vertex="1">
          <mxGeometry x="920" y="80" width="90" height="60" as="geometry" />
        </mxCell>
        <mxCell id="AHnlYJfSwKm474h9auV9-92" value="YA" style="text;html=1;align=center;verticalAlign=middle;resizable=0;points=[];autosize=1;strokeColor=none;fillColor=none;" parent="1" vertex="1">
          <mxGeometry x="1275" y="150" width="40" height="30" as="geometry" />
        </mxCell>
        <mxCell id="AHnlYJfSwKm474h9auV9-93" value="YA" style="text;html=1;align=center;verticalAlign=middle;resizable=0;points=[];autosize=1;strokeColor=none;fillColor=none;" parent="1" vertex="1">
          <mxGeometry x="1272.75" y="280" width="40" height="30" as="geometry" />
        </mxCell>
        <mxCell id="AHnlYJfSwKm474h9auV9-94" value="YA" style="text;html=1;align=center;verticalAlign=middle;resizable=0;points=[];autosize=1;strokeColor=none;fillColor=none;" parent="1" vertex="1">
          <mxGeometry x="1272.75" y="400" width="40" height="30" as="geometry" />
        </mxCell>
        <mxCell id="AHnlYJfSwKm474h9auV9-95" value="Tidak" style="text;html=1;align=center;verticalAlign=middle;resizable=0;points=[];autosize=1;strokeColor=none;fillColor=none;" parent="1" vertex="1">
          <mxGeometry x="1183.25" y="440" width="50" height="30" as="geometry" />
        </mxCell>
        <mxCell id="AHnlYJfSwKm474h9auV9-96" value="Tidak" style="text;html=1;align=center;verticalAlign=middle;resizable=0;points=[];autosize=1;strokeColor=none;fillColor=none;" parent="1" vertex="1">
          <mxGeometry x="1173" y="330" width="50" height="30" as="geometry" />
        </mxCell>
        <mxCell id="AHnlYJfSwKm474h9auV9-97" value="Tidak" style="text;html=1;align=center;verticalAlign=middle;resizable=0;points=[];autosize=1;strokeColor=none;fillColor=none;" parent="1" vertex="1">
          <mxGeometry x="1173" y="210" width="50" height="30" as="geometry" />
        </mxCell>
        <mxCell id="AHnlYJfSwKm474h9auV9-106" value="" style="edgeStyle=orthogonalEdgeStyle;rounded=0;orthogonalLoop=1;jettySize=auto;html=1;" parent="1" source="AHnlYJfSwKm474h9auV9-99" edge="1">
          <mxGeometry relative="1" as="geometry">
            <mxPoint x="1276" y="650" as="targetPoint" />
          </mxGeometry>
        </mxCell>
        <mxCell id="AHnlYJfSwKm474h9auV9-99" value="Masukkan Warna Mobil" style="whiteSpace=wrap;html=1;" parent="1" vertex="1">
          <mxGeometry x="1233.25" y="561.25" width="84.5" height="47.5" as="geometry" />
        </mxCell>
        <mxCell id="AHnlYJfSwKm474h9auV9-110" value="" style="edgeStyle=orthogonalEdgeStyle;rounded=0;orthogonalLoop=1;jettySize=auto;html=1;" parent="1" source="AHnlYJfSwKm474h9auV9-101" target="AHnlYJfSwKm474h9auV9-109" edge="1">
          <mxGeometry relative="1" as="geometry" />
        </mxCell>
        <mxCell id="AHnlYJfSwKm474h9auV9-101" value="Masukkan Jenis Bensin" style="whiteSpace=wrap;html=1;" parent="1" vertex="1">
          <mxGeometry x="1233.25" y="652.5" width="84.5" height="47.5" as="geometry" />
        </mxCell>
        <mxCell id="AHnlYJfSwKm474h9auV9-112" value="" style="edgeStyle=orthogonalEdgeStyle;rounded=0;orthogonalLoop=1;jettySize=auto;html=1;" parent="1" source="AHnlYJfSwKm474h9auV9-109" edge="1">
          <mxGeometry relative="1" as="geometry">
            <mxPoint x="960" y="470" as="targetPoint" />
          </mxGeometry>
        </mxCell>
        <mxCell id="AHnlYJfSwKm474h9auV9-114" value="" style="edgeStyle=orthogonalEdgeStyle;rounded=0;orthogonalLoop=1;jettySize=auto;html=1;" parent="1" source="AHnlYJfSwKm474h9auV9-109" target="AHnlYJfSwKm474h9auV9-113" edge="1">
          <mxGeometry relative="1" as="geometry" />
        </mxCell>
        <mxCell id="AHnlYJfSwKm474h9auV9-109" value="Masukkan KM Mobil" style="rhombus;whiteSpace=wrap;html=1;" parent="1" vertex="1">
          <mxGeometry x="1233.25" y="730" width="84.5" height="95" as="geometry" />
        </mxCell>
        <mxCell id="AHnlYJfSwKm474h9auV9-113" value="Data Berhasil di Input" style="whiteSpace=wrap;html=1;" parent="1" vertex="1">
          <mxGeometry x="1223" y="860" width="105" height="50" as="geometry" />
        </mxCell>
        <mxCell id="AHnlYJfSwKm474h9auV9-115" value="Tidak" style="text;html=1;align=center;verticalAlign=middle;resizable=0;points=[];autosize=1;strokeColor=none;fillColor=none;" parent="1" vertex="1">
          <mxGeometry x="1183.25" y="740" width="50" height="30" as="geometry" />
        </mxCell>
        <mxCell id="AHnlYJfSwKm474h9auV9-116" value="YA" style="text;html=1;align=center;verticalAlign=middle;resizable=0;points=[];autosize=1;strokeColor=none;fillColor=none;" parent="1" vertex="1">
          <mxGeometry x="1275" y="700" width="40" height="30" as="geometry" />
        </mxCell>
        <mxCell id="AHnlYJfSwKm474h9auV9-117" value="&lt;b&gt;&lt;font style=&quot;font-size: 24px;&quot;&gt;MENU TAMBAH MOBIL&lt;/font&gt;&lt;/b&gt;" style="text;html=1;align=center;verticalAlign=middle;resizable=0;points=[];autosize=1;strokeColor=none;fillColor=none;" parent="1" vertex="1">
          <mxGeometry x="883" y="10" width="290" height="40" as="geometry" />
        </mxCell>
        <mxCell id="AHnlYJfSwKm474h9auV9-136" value="" style="edgeStyle=orthogonalEdgeStyle;rounded=0;orthogonalLoop=1;jettySize=auto;html=1;" parent="1" source="AHnlYJfSwKm474h9auV9-119" target="AHnlYJfSwKm474h9auV9-132" edge="1">
          <mxGeometry relative="1" as="geometry" />
        </mxCell>
        <mxCell id="AHnlYJfSwKm474h9auV9-119" value="Menampilkan Daftar Mobil" style="rounded=0;whiteSpace=wrap;html=1;" parent="1" vertex="1">
          <mxGeometry x="2075" y="110" width="100" height="50" as="geometry" />
        </mxCell>
        <mxCell id="AHnlYJfSwKm474h9auV9-139" value="" style="edgeStyle=orthogonalEdgeStyle;rounded=0;orthogonalLoop=1;jettySize=auto;html=1;" parent="1" source="AHnlYJfSwKm474h9auV9-125" target="AHnlYJfSwKm474h9auV9-134" edge="1">
          <mxGeometry relative="1" as="geometry" />
        </mxCell>
        <mxCell id="AHnlYJfSwKm474h9auV9-169" value="" style="edgeStyle=orthogonalEdgeStyle;rounded=0;orthogonalLoop=1;jettySize=auto;html=1;" parent="1" source="AHnlYJfSwKm474h9auV9-125" edge="1">
          <mxGeometry relative="1" as="geometry">
            <mxPoint x="2270" y="584" as="targetPoint" />
          </mxGeometry>
        </mxCell>
        <mxCell id="AHnlYJfSwKm474h9auV9-125" value="AdminMemilih Primary Key 4" style="rhombus;whiteSpace=wrap;html=1;" parent="1" vertex="1">
          <mxGeometry x="2077" y="537.5" width="97" height="95" as="geometry" />
        </mxCell>
        <mxCell id="AHnlYJfSwKm474h9auV9-135" value="" style="edgeStyle=orthogonalEdgeStyle;rounded=0;orthogonalLoop=1;jettySize=auto;html=1;" parent="1" source="AHnlYJfSwKm474h9auV9-130" target="AHnlYJfSwKm474h9auV9-125" edge="1">
          <mxGeometry relative="1" as="geometry" />
        </mxCell>
        <mxCell id="AHnlYJfSwKm474h9auV9-167" value="" style="edgeStyle=orthogonalEdgeStyle;rounded=0;orthogonalLoop=1;jettySize=auto;html=1;" parent="1" source="AHnlYJfSwKm474h9auV9-130" target="AHnlYJfSwKm474h9auV9-161" edge="1">
          <mxGeometry relative="1" as="geometry" />
        </mxCell>
        <mxCell id="AHnlYJfSwKm474h9auV9-130" value="AdminMemilih Primary Key 3" style="rhombus;whiteSpace=wrap;html=1;" parent="1" vertex="1">
          <mxGeometry x="2077" y="420" width="97" height="95" as="geometry" />
        </mxCell>
        <mxCell id="AHnlYJfSwKm474h9auV9-138" value="" style="edgeStyle=orthogonalEdgeStyle;rounded=0;orthogonalLoop=1;jettySize=auto;html=1;" parent="1" source="AHnlYJfSwKm474h9auV9-131" target="AHnlYJfSwKm474h9auV9-130" edge="1">
          <mxGeometry relative="1" as="geometry" />
        </mxCell>
        <mxCell id="AHnlYJfSwKm474h9auV9-164" value="" style="edgeStyle=orthogonalEdgeStyle;rounded=0;orthogonalLoop=1;jettySize=auto;html=1;" parent="1" source="AHnlYJfSwKm474h9auV9-131" target="AHnlYJfSwKm474h9auV9-162" edge="1">
          <mxGeometry relative="1" as="geometry" />
        </mxCell>
        <mxCell id="AHnlYJfSwKm474h9auV9-131" value="AdminMemilih Primary Key 2" style="rhombus;whiteSpace=wrap;html=1;" parent="1" vertex="1">
          <mxGeometry x="2077" y="297.5" width="97" height="95" as="geometry" />
        </mxCell>
        <mxCell id="AHnlYJfSwKm474h9auV9-137" value="" style="edgeStyle=orthogonalEdgeStyle;rounded=0;orthogonalLoop=1;jettySize=auto;html=1;" parent="1" source="AHnlYJfSwKm474h9auV9-132" target="AHnlYJfSwKm474h9auV9-131" edge="1">
          <mxGeometry relative="1" as="geometry" />
        </mxCell>
        <mxCell id="AHnlYJfSwKm474h9auV9-158" value="" style="edgeStyle=orthogonalEdgeStyle;rounded=0;orthogonalLoop=1;jettySize=auto;html=1;" parent="1" source="AHnlYJfSwKm474h9auV9-132" target="AHnlYJfSwKm474h9auV9-157" edge="1">
          <mxGeometry relative="1" as="geometry" />
        </mxCell>
        <mxCell id="AHnlYJfSwKm474h9auV9-132" value="AdminMemilih Primary Key 1" style="rhombus;whiteSpace=wrap;html=1;" parent="1" vertex="1">
          <mxGeometry x="2077" y="180" width="97" height="95" as="geometry" />
        </mxCell>
        <mxCell id="AHnlYJfSwKm474h9auV9-172" value="" style="edgeStyle=orthogonalEdgeStyle;rounded=0;orthogonalLoop=1;jettySize=auto;html=1;" parent="1" source="AHnlYJfSwKm474h9auV9-133" target="AHnlYJfSwKm474h9auV9-163" edge="1">
          <mxGeometry relative="1" as="geometry" />
        </mxCell>
        <mxCell id="AHnlYJfSwKm474h9auV9-194" value="" style="edgeStyle=orthogonalEdgeStyle;rounded=0;orthogonalLoop=1;jettySize=auto;html=1;" parent="1" source="AHnlYJfSwKm474h9auV9-133" target="AHnlYJfSwKm474h9auV9-186" edge="1">
          <mxGeometry relative="1" as="geometry">
            <mxPoint x="1820" y="818" as="targetPoint" />
          </mxGeometry>
        </mxCell>
        <mxCell id="AHnlYJfSwKm474h9auV9-133" value="AdminMemilih Primary Key 6" style="rhombus;whiteSpace=wrap;html=1;" parent="1" vertex="1">
          <mxGeometry x="2077" y="770" width="97" height="95" as="geometry" />
        </mxCell>
        <mxCell id="AHnlYJfSwKm474h9auV9-140" value="" style="edgeStyle=orthogonalEdgeStyle;rounded=0;orthogonalLoop=1;jettySize=auto;html=1;" parent="1" source="AHnlYJfSwKm474h9auV9-134" target="AHnlYJfSwKm474h9auV9-133" edge="1">
          <mxGeometry relative="1" as="geometry" />
        </mxCell>
        <mxCell id="AHnlYJfSwKm474h9auV9-171" value="" style="edgeStyle=orthogonalEdgeStyle;rounded=0;orthogonalLoop=1;jettySize=auto;html=1;" parent="1" source="AHnlYJfSwKm474h9auV9-134" target="AHnlYJfSwKm474h9auV9-159" edge="1">
          <mxGeometry relative="1" as="geometry" />
        </mxCell>
        <mxCell id="AHnlYJfSwKm474h9auV9-134" value="AdminMemilih Primary Key 5" style="rhombus;whiteSpace=wrap;html=1;" parent="1" vertex="1">
          <mxGeometry x="2077" y="652.5" width="97" height="95" as="geometry" />
        </mxCell>
        <mxCell id="AHnlYJfSwKm474h9auV9-142" value="YA" style="text;html=1;align=center;verticalAlign=middle;resizable=0;points=[];autosize=1;strokeColor=none;fillColor=none;" parent="1" vertex="1">
          <mxGeometry x="2170" y="203.75" width="40" height="30" as="geometry" />
        </mxCell>
        <mxCell id="AHnlYJfSwKm474h9auV9-143" value="YA" style="text;html=1;align=center;verticalAlign=middle;resizable=0;points=[];autosize=1;strokeColor=none;fillColor=none;" parent="1" vertex="1">
          <mxGeometry x="2170" y="320" width="40" height="30" as="geometry" />
        </mxCell>
        <mxCell id="AHnlYJfSwKm474h9auV9-144" value="YA" style="text;html=1;align=center;verticalAlign=middle;resizable=0;points=[];autosize=1;strokeColor=none;fillColor=none;" parent="1" vertex="1">
          <mxGeometry x="2170" y="440" width="40" height="30" as="geometry" />
        </mxCell>
        <mxCell id="AHnlYJfSwKm474h9auV9-145" value="YA" style="text;html=1;align=center;verticalAlign=middle;resizable=0;points=[];autosize=1;strokeColor=none;fillColor=none;" parent="1" vertex="1">
          <mxGeometry x="2170" y="561.25" width="40" height="30" as="geometry" />
        </mxCell>
        <mxCell id="AHnlYJfSwKm474h9auV9-146" value="YA" style="text;html=1;align=center;verticalAlign=middle;resizable=0;points=[];autosize=1;strokeColor=none;fillColor=none;" parent="1" vertex="1">
          <mxGeometry x="2174" y="783.75" width="40" height="30" as="geometry" />
        </mxCell>
        <mxCell id="AHnlYJfSwKm474h9auV9-147" value="YA" style="text;html=1;align=center;verticalAlign=middle;resizable=0;points=[];autosize=1;strokeColor=none;fillColor=none;" parent="1" vertex="1">
          <mxGeometry x="2170" y="670" width="40" height="30" as="geometry" />
        </mxCell>
        <mxCell id="AHnlYJfSwKm474h9auV9-148" value="Tidak" style="text;html=1;align=center;verticalAlign=middle;resizable=0;points=[];autosize=1;strokeColor=none;fillColor=none;" parent="1" vertex="1">
          <mxGeometry x="2025" y="790" width="50" height="30" as="geometry" />
        </mxCell>
        <mxCell id="AHnlYJfSwKm474h9auV9-149" value="Tidak" style="text;html=1;align=center;verticalAlign=middle;resizable=0;points=[];autosize=1;strokeColor=none;fillColor=none;" parent="1" vertex="1">
          <mxGeometry x="2120" y="740" width="50" height="30" as="geometry" />
        </mxCell>
        <mxCell id="AHnlYJfSwKm474h9auV9-150" value="Tidak" style="text;html=1;align=center;verticalAlign=middle;resizable=0;points=[];autosize=1;strokeColor=none;fillColor=none;" parent="1" vertex="1">
          <mxGeometry x="2120" y="268" width="50" height="30" as="geometry" />
        </mxCell>
        <mxCell id="AHnlYJfSwKm474h9auV9-151" value="Tidak" style="text;html=1;align=center;verticalAlign=middle;resizable=0;points=[];autosize=1;strokeColor=none;fillColor=none;" parent="1" vertex="1">
          <mxGeometry x="2120" y="622.5" width="50" height="30" as="geometry" />
        </mxCell>
        <mxCell id="AHnlYJfSwKm474h9auV9-152" value="Tidak" style="text;html=1;align=center;verticalAlign=middle;resizable=0;points=[];autosize=1;strokeColor=none;fillColor=none;" parent="1" vertex="1">
          <mxGeometry x="2125" y="505" width="50" height="30" as="geometry" />
        </mxCell>
        <mxCell id="AHnlYJfSwKm474h9auV9-153" value="Tidak" style="text;html=1;align=center;verticalAlign=middle;resizable=0;points=[];autosize=1;strokeColor=none;fillColor=none;" parent="1" vertex="1">
          <mxGeometry x="2120" y="390" width="50" height="30" as="geometry" />
        </mxCell>
        <mxCell id="AHnlYJfSwKm474h9auV9-185" value="" style="edgeStyle=orthogonalEdgeStyle;rounded=0;orthogonalLoop=1;jettySize=auto;html=1;" parent="1" source="AHnlYJfSwKm474h9auV9-157" target="AHnlYJfSwKm474h9auV9-176" edge="1">
          <mxGeometry relative="1" as="geometry" />
        </mxCell>
        <mxCell id="AHnlYJfSwKm474h9auV9-157" value="A" style="ellipse;whiteSpace=wrap;html=1;" parent="1" vertex="1">
          <mxGeometry x="2262.5" y="193.75" width="67.5" height="67.5" as="geometry" />
        </mxCell>
        <mxCell id="AHnlYJfSwKm474h9auV9-182" value="" style="edgeStyle=orthogonalEdgeStyle;rounded=0;orthogonalLoop=1;jettySize=auto;html=1;" parent="1" source="AHnlYJfSwKm474h9auV9-159" target="AHnlYJfSwKm474h9auV9-179" edge="1">
          <mxGeometry relative="1" as="geometry" />
        </mxCell>
        <mxCell id="AHnlYJfSwKm474h9auV9-159" value="A" style="ellipse;whiteSpace=wrap;html=1;fontStyle=0" parent="1" vertex="1">
          <mxGeometry x="2272.5" y="666.25" width="67.5" height="67.5" as="geometry" />
        </mxCell>
        <mxCell id="AHnlYJfSwKm474h9auV9-184" value="" style="edgeStyle=orthogonalEdgeStyle;rounded=0;orthogonalLoop=1;jettySize=auto;html=1;" parent="1" source="AHnlYJfSwKm474h9auV9-161" target="AHnlYJfSwKm474h9auV9-177" edge="1">
          <mxGeometry relative="1" as="geometry" />
        </mxCell>
        <mxCell id="AHnlYJfSwKm474h9auV9-161" value="A" style="ellipse;whiteSpace=wrap;html=1;fontStyle=0" parent="1" vertex="1">
          <mxGeometry x="2272.5" y="433.75" width="67.5" height="67.5" as="geometry" />
        </mxCell>
        <mxCell id="AHnlYJfSwKm474h9auV9-174" value="" style="edgeStyle=orthogonalEdgeStyle;rounded=0;orthogonalLoop=1;jettySize=auto;html=1;" parent="1" source="AHnlYJfSwKm474h9auV9-162" target="AHnlYJfSwKm474h9auV9-173" edge="1">
          <mxGeometry relative="1" as="geometry" />
        </mxCell>
        <mxCell id="AHnlYJfSwKm474h9auV9-162" value="A" style="ellipse;whiteSpace=wrap;html=1;fontStyle=0" parent="1" vertex="1">
          <mxGeometry x="2272.5" y="311.25" width="67.5" height="67.5" as="geometry" />
        </mxCell>
        <mxCell id="AHnlYJfSwKm474h9auV9-181" value="" style="edgeStyle=orthogonalEdgeStyle;rounded=0;orthogonalLoop=1;jettySize=auto;html=1;" parent="1" source="AHnlYJfSwKm474h9auV9-163" target="AHnlYJfSwKm474h9auV9-180" edge="1">
          <mxGeometry relative="1" as="geometry" />
        </mxCell>
        <mxCell id="AHnlYJfSwKm474h9auV9-163" value="A" style="ellipse;whiteSpace=wrap;html=1;fontStyle=0" parent="1" vertex="1">
          <mxGeometry x="2272.5" y="783.75" width="67.5" height="67.5" as="geometry" />
        </mxCell>
        <mxCell id="AHnlYJfSwKm474h9auV9-183" value="" style="edgeStyle=orthogonalEdgeStyle;rounded=0;orthogonalLoop=1;jettySize=auto;html=1;" parent="1" source="AHnlYJfSwKm474h9auV9-170" target="AHnlYJfSwKm474h9auV9-178" edge="1">
          <mxGeometry relative="1" as="geometry" />
        </mxCell>
        <mxCell id="AHnlYJfSwKm474h9auV9-170" value="A" style="ellipse;whiteSpace=wrap;html=1;fontStyle=0" parent="1" vertex="1">
          <mxGeometry x="2272.5" y="550" width="67.5" height="67.5" as="geometry" />
        </mxCell>
        <mxCell id="AHnlYJfSwKm474h9auV9-173" value="Data Mobil Berhasil Diperbarui" style="whiteSpace=wrap;html=1;fontStyle=0;" parent="1" vertex="1">
          <mxGeometry x="2380" y="317.5" width="110" height="55" as="geometry" />
        </mxCell>
        <mxCell id="AHnlYJfSwKm474h9auV9-175" value="Data Mobil Berhasil Diperbarui" style="whiteSpace=wrap;html=1;fontStyle=0;" parent="1" vertex="1">
          <mxGeometry x="2380" y="317.5" width="110" height="55" as="geometry" />
        </mxCell>
        <mxCell id="AHnlYJfSwKm474h9auV9-176" value="Data Mobil Berhasil Diperbarui" style="whiteSpace=wrap;html=1;fontStyle=0;" parent="1" vertex="1">
          <mxGeometry x="2380" y="200" width="110" height="55" as="geometry" />
        </mxCell>
        <mxCell id="AHnlYJfSwKm474h9auV9-177" value="Data Mobil Berhasil Diperbarui" style="whiteSpace=wrap;html=1;fontStyle=0;" parent="1" vertex="1">
          <mxGeometry x="2380" y="440" width="110" height="55" as="geometry" />
        </mxCell>
        <mxCell id="AHnlYJfSwKm474h9auV9-178" value="Data Mobil Berhasil Diperbarui" style="whiteSpace=wrap;html=1;fontStyle=0;" parent="1" vertex="1">
          <mxGeometry x="2380" y="556.25" width="110" height="55" as="geometry" />
        </mxCell>
        <mxCell id="AHnlYJfSwKm474h9auV9-179" value="Data Mobil Berhasil Diperbarui" style="whiteSpace=wrap;html=1;fontStyle=0;" parent="1" vertex="1">
          <mxGeometry x="2380" y="672.5" width="110" height="55" as="geometry" />
        </mxCell>
        <mxCell id="AHnlYJfSwKm474h9auV9-180" value="Data Mobil Berhasil Diperbarui" style="whiteSpace=wrap;html=1;fontStyle=0;" parent="1" vertex="1">
          <mxGeometry x="2380" y="790" width="110" height="55" as="geometry" />
        </mxCell>
        <mxCell id="AHnlYJfSwKm474h9auV9-186" value="Nomer Tidak Valid Kembali ke Menu Utama" style="rounded=1;whiteSpace=wrap;html=1;" parent="1" vertex="1">
          <mxGeometry x="1780" y="130" width="120" height="60" as="geometry" />
        </mxCell>
        <mxCell id="AHnlYJfSwKm474h9auV9-197" value="&lt;b style=&quot;forced-color-adjust: none; color: rgb(0, 0, 0); font-family: Helvetica; font-size: 12px; font-style: normal; font-variant-ligatures: normal; font-variant-caps: normal; letter-spacing: normal; orphans: 2; text-align: center; text-indent: 0px; text-transform: none; widows: 2; word-spacing: 0px; -webkit-text-stroke-width: 0px; white-space: nowrap; background-color: rgb(251, 251, 251); text-decoration-thickness: initial; text-decoration-style: initial; text-decoration-color: initial;&quot;&gt;&lt;font style=&quot;forced-color-adjust: none; font-size: 24px;&quot;&gt;MENU PERBARUI MOBIL&lt;/font&gt;&lt;/b&gt;" style="text;whiteSpace=wrap;html=1;" parent="1" vertex="1">
          <mxGeometry x="1720" y="20" width="300" height="50" as="geometry" />
        </mxCell>
        <mxCell id="AHnlYJfSwKm474h9auV9-199" value="" style="edgeStyle=orthogonalEdgeStyle;rounded=0;orthogonalLoop=1;jettySize=auto;html=1;" parent="1" target="AHnlYJfSwKm474h9auV9-201" edge="1">
          <mxGeometry relative="1" as="geometry">
            <mxPoint x="2880" y="85" as="sourcePoint" />
          </mxGeometry>
        </mxCell>
        <mxCell id="AHnlYJfSwKm474h9auV9-200" value="" style="edgeStyle=orthogonalEdgeStyle;rounded=0;orthogonalLoop=1;jettySize=auto;html=1;" parent="1" source="AHnlYJfSwKm474h9auV9-201" target="AHnlYJfSwKm474h9auV9-213" edge="1">
          <mxGeometry relative="1" as="geometry" />
        </mxCell>
        <mxCell id="AHnlYJfSwKm474h9auV9-201" value="Menampilkan Daftar Mobil" style="rounded=0;whiteSpace=wrap;html=1;" parent="1" vertex="1">
          <mxGeometry x="2830" y="125" width="100" height="50" as="geometry" />
        </mxCell>
        <mxCell id="AHnlYJfSwKm474h9auV9-202" value="" style="edgeStyle=orthogonalEdgeStyle;rounded=0;orthogonalLoop=1;jettySize=auto;html=1;" parent="1" source="AHnlYJfSwKm474h9auV9-204" target="AHnlYJfSwKm474h9auV9-218" edge="1">
          <mxGeometry relative="1" as="geometry" />
        </mxCell>
        <mxCell id="AHnlYJfSwKm474h9auV9-203" value="" style="edgeStyle=orthogonalEdgeStyle;rounded=0;orthogonalLoop=1;jettySize=auto;html=1;" parent="1" source="AHnlYJfSwKm474h9auV9-204" edge="1">
          <mxGeometry relative="1" as="geometry">
            <mxPoint x="3025" y="599" as="targetPoint" />
          </mxGeometry>
        </mxCell>
        <mxCell id="AHnlYJfSwKm474h9auV9-204" value="Admin Memilih Primary Key 4" style="rhombus;whiteSpace=wrap;html=1;" parent="1" vertex="1">
          <mxGeometry x="2832" y="552.5" width="97" height="95" as="geometry" />
        </mxCell>
        <mxCell id="AHnlYJfSwKm474h9auV9-205" value="" style="edgeStyle=orthogonalEdgeStyle;rounded=0;orthogonalLoop=1;jettySize=auto;html=1;" parent="1" source="AHnlYJfSwKm474h9auV9-207" target="AHnlYJfSwKm474h9auV9-204" edge="1">
          <mxGeometry relative="1" as="geometry" />
        </mxCell>
        <mxCell id="AHnlYJfSwKm474h9auV9-206" value="" style="edgeStyle=orthogonalEdgeStyle;rounded=0;orthogonalLoop=1;jettySize=auto;html=1;" parent="1" source="AHnlYJfSwKm474h9auV9-207" edge="1">
          <mxGeometry relative="1" as="geometry">
            <mxPoint x="3027.5001481484733" y="482.5999999999999" as="targetPoint" />
          </mxGeometry>
        </mxCell>
        <mxCell id="AHnlYJfSwKm474h9auV9-207" value="Admin Memilih Primary Key 3" style="rhombus;whiteSpace=wrap;html=1;" parent="1" vertex="1">
          <mxGeometry x="2832" y="435" width="97" height="95" as="geometry" />
        </mxCell>
        <mxCell id="AHnlYJfSwKm474h9auV9-208" value="" style="edgeStyle=orthogonalEdgeStyle;rounded=0;orthogonalLoop=1;jettySize=auto;html=1;" parent="1" source="AHnlYJfSwKm474h9auV9-210" target="AHnlYJfSwKm474h9auV9-207" edge="1">
          <mxGeometry relative="1" as="geometry" />
        </mxCell>
        <mxCell id="AHnlYJfSwKm474h9auV9-209" value="" style="edgeStyle=orthogonalEdgeStyle;rounded=0;orthogonalLoop=1;jettySize=auto;html=1;" parent="1" source="AHnlYJfSwKm474h9auV9-210" edge="1">
          <mxGeometry relative="1" as="geometry">
            <mxPoint x="3027.5001481484733" y="360.1" as="targetPoint" />
          </mxGeometry>
        </mxCell>
        <mxCell id="AHnlYJfSwKm474h9auV9-210" value="Admin Memilih Primary Key 2" style="rhombus;whiteSpace=wrap;html=1;" parent="1" vertex="1">
          <mxGeometry x="2832" y="312.5" width="97" height="95" as="geometry" />
        </mxCell>
        <mxCell id="AHnlYJfSwKm474h9auV9-211" value="" style="edgeStyle=orthogonalEdgeStyle;rounded=0;orthogonalLoop=1;jettySize=auto;html=1;" parent="1" source="AHnlYJfSwKm474h9auV9-213" target="AHnlYJfSwKm474h9auV9-210" edge="1">
          <mxGeometry relative="1" as="geometry" />
        </mxCell>
        <mxCell id="AHnlYJfSwKm474h9auV9-212" value="" style="edgeStyle=orthogonalEdgeStyle;rounded=0;orthogonalLoop=1;jettySize=auto;html=1;entryX=0;entryY=0.5;entryDx=0;entryDy=0;" parent="1" source="AHnlYJfSwKm474h9auV9-213" target="AHnlYJfSwKm474h9auV9-244" edge="1">
          <mxGeometry relative="1" as="geometry">
            <mxPoint x="3017.5001481484733" y="242.60000000000002" as="targetPoint" />
          </mxGeometry>
        </mxCell>
        <mxCell id="AHnlYJfSwKm474h9auV9-213" value="Admin Memilih Primary Key 1" style="rhombus;whiteSpace=wrap;html=1;" parent="1" vertex="1">
          <mxGeometry x="2832" y="195" width="97" height="95" as="geometry" />
        </mxCell>
        <mxCell id="AHnlYJfSwKm474h9auV9-214" value="" style="edgeStyle=orthogonalEdgeStyle;rounded=0;orthogonalLoop=1;jettySize=auto;html=1;" parent="1" source="AHnlYJfSwKm474h9auV9-215" edge="1">
          <mxGeometry relative="1" as="geometry">
            <mxPoint x="3027.5001481484733" y="832.5999999999999" as="targetPoint" />
          </mxGeometry>
        </mxCell>
        <mxCell id="AHnlYJfSwKm474h9auV9-276" value="" style="edgeStyle=orthogonalEdgeStyle;rounded=0;orthogonalLoop=1;jettySize=auto;html=1;entryX=0.5;entryY=1;entryDx=0;entryDy=0;" parent="1" source="AHnlYJfSwKm474h9auV9-215" target="AHnlYJfSwKm474h9auV9-274" edge="1">
          <mxGeometry relative="1" as="geometry">
            <mxPoint x="2680" y="833" as="targetPoint" />
          </mxGeometry>
        </mxCell>
        <mxCell id="AHnlYJfSwKm474h9auV9-215" value="Admin Memilih Primary Key 6" style="rhombus;whiteSpace=wrap;html=1;" parent="1" vertex="1">
          <mxGeometry x="2832" y="785" width="97" height="95" as="geometry" />
        </mxCell>
        <mxCell id="AHnlYJfSwKm474h9auV9-216" value="" style="edgeStyle=orthogonalEdgeStyle;rounded=0;orthogonalLoop=1;jettySize=auto;html=1;" parent="1" source="AHnlYJfSwKm474h9auV9-218" target="AHnlYJfSwKm474h9auV9-215" edge="1">
          <mxGeometry relative="1" as="geometry" />
        </mxCell>
        <mxCell id="AHnlYJfSwKm474h9auV9-217" value="" style="edgeStyle=orthogonalEdgeStyle;rounded=0;orthogonalLoop=1;jettySize=auto;html=1;" parent="1" source="AHnlYJfSwKm474h9auV9-218" edge="1">
          <mxGeometry relative="1" as="geometry">
            <mxPoint x="3027.5001481484733" y="715.0999999999999" as="targetPoint" />
          </mxGeometry>
        </mxCell>
        <mxCell id="AHnlYJfSwKm474h9auV9-218" value="Admin Memilih Primary Key 5" style="rhombus;whiteSpace=wrap;html=1;" parent="1" vertex="1">
          <mxGeometry x="2832" y="667.5" width="97" height="95" as="geometry" />
        </mxCell>
        <mxCell id="AHnlYJfSwKm474h9auV9-219" value="YA" style="text;html=1;align=center;verticalAlign=middle;resizable=0;points=[];autosize=1;strokeColor=none;fillColor=none;" parent="1" vertex="1">
          <mxGeometry x="2925" y="218.75" width="40" height="30" as="geometry" />
        </mxCell>
        <mxCell id="AHnlYJfSwKm474h9auV9-220" value="YA" style="text;html=1;align=center;verticalAlign=middle;resizable=0;points=[];autosize=1;strokeColor=none;fillColor=none;" parent="1" vertex="1">
          <mxGeometry x="2925" y="335" width="40" height="30" as="geometry" />
        </mxCell>
        <mxCell id="AHnlYJfSwKm474h9auV9-221" value="YA" style="text;html=1;align=center;verticalAlign=middle;resizable=0;points=[];autosize=1;strokeColor=none;fillColor=none;" parent="1" vertex="1">
          <mxGeometry x="2925" y="455" width="40" height="30" as="geometry" />
        </mxCell>
        <mxCell id="AHnlYJfSwKm474h9auV9-222" value="YA" style="text;html=1;align=center;verticalAlign=middle;resizable=0;points=[];autosize=1;strokeColor=none;fillColor=none;" parent="1" vertex="1">
          <mxGeometry x="2925" y="576.25" width="40" height="30" as="geometry" />
        </mxCell>
        <mxCell id="AHnlYJfSwKm474h9auV9-223" value="YA" style="text;html=1;align=center;verticalAlign=middle;resizable=0;points=[];autosize=1;strokeColor=none;fillColor=none;" parent="1" vertex="1">
          <mxGeometry x="2929" y="798.75" width="40" height="30" as="geometry" />
        </mxCell>
        <mxCell id="AHnlYJfSwKm474h9auV9-224" value="YA" style="text;html=1;align=center;verticalAlign=middle;resizable=0;points=[];autosize=1;strokeColor=none;fillColor=none;" parent="1" vertex="1">
          <mxGeometry x="2925" y="685" width="40" height="30" as="geometry" />
        </mxCell>
        <mxCell id="AHnlYJfSwKm474h9auV9-225" value="Tidak" style="text;html=1;align=center;verticalAlign=middle;resizable=0;points=[];autosize=1;strokeColor=none;fillColor=none;" parent="1" vertex="1">
          <mxGeometry x="2875" y="755" width="50" height="30" as="geometry" />
        </mxCell>
        <mxCell id="AHnlYJfSwKm474h9auV9-226" value="Tidak" style="text;html=1;align=center;verticalAlign=middle;resizable=0;points=[];autosize=1;strokeColor=none;fillColor=none;" parent="1" vertex="1">
          <mxGeometry x="2875" y="283" width="50" height="30" as="geometry" />
        </mxCell>
        <mxCell id="AHnlYJfSwKm474h9auV9-227" value="Tidak" style="text;html=1;align=center;verticalAlign=middle;resizable=0;points=[];autosize=1;strokeColor=none;fillColor=none;" parent="1" vertex="1">
          <mxGeometry x="2875" y="637.5" width="50" height="30" as="geometry" />
        </mxCell>
        <mxCell id="AHnlYJfSwKm474h9auV9-228" value="Tidak" style="text;html=1;align=center;verticalAlign=middle;resizable=0;points=[];autosize=1;strokeColor=none;fillColor=none;" parent="1" vertex="1">
          <mxGeometry x="2880" y="520" width="50" height="30" as="geometry" />
        </mxCell>
        <mxCell id="AHnlYJfSwKm474h9auV9-229" value="Tidak" style="text;html=1;align=center;verticalAlign=middle;resizable=0;points=[];autosize=1;strokeColor=none;fillColor=none;" parent="1" vertex="1">
          <mxGeometry x="2875" y="405" width="50" height="30" as="geometry" />
        </mxCell>
        <mxCell id="AHnlYJfSwKm474h9auV9-269" value="" style="edgeStyle=orthogonalEdgeStyle;rounded=0;orthogonalLoop=1;jettySize=auto;html=1;" parent="1" source="AHnlYJfSwKm474h9auV9-243" target="AHnlYJfSwKm474h9auV9-262" edge="1">
          <mxGeometry relative="1" as="geometry" />
        </mxCell>
        <mxCell id="AHnlYJfSwKm474h9auV9-243" value="Menghapus Data" style="whiteSpace=wrap;html=1;fontStyle=0;" parent="1" vertex="1">
          <mxGeometry x="3027.5" y="332.5" width="110" height="55" as="geometry" />
        </mxCell>
        <mxCell id="AHnlYJfSwKm474h9auV9-270" value="" style="edgeStyle=orthogonalEdgeStyle;rounded=0;orthogonalLoop=1;jettySize=auto;html=1;" parent="1" source="AHnlYJfSwKm474h9auV9-244" target="AHnlYJfSwKm474h9auV9-261" edge="1">
          <mxGeometry relative="1" as="geometry" />
        </mxCell>
        <mxCell id="AHnlYJfSwKm474h9auV9-244" value="Menghapus Data" style="whiteSpace=wrap;html=1;fontStyle=0;" parent="1" vertex="1">
          <mxGeometry x="3027.5" y="215" width="110" height="55" as="geometry" />
        </mxCell>
        <mxCell id="AHnlYJfSwKm474h9auV9-268" value="" style="edgeStyle=orthogonalEdgeStyle;rounded=0;orthogonalLoop=1;jettySize=auto;html=1;" parent="1" source="AHnlYJfSwKm474h9auV9-245" target="AHnlYJfSwKm474h9auV9-263" edge="1">
          <mxGeometry relative="1" as="geometry" />
        </mxCell>
        <mxCell id="AHnlYJfSwKm474h9auV9-245" value="Menghapus Data" style="whiteSpace=wrap;html=1;fontStyle=0;" parent="1" vertex="1">
          <mxGeometry x="3027.5" y="455" width="110" height="55" as="geometry" />
        </mxCell>
        <mxCell id="AHnlYJfSwKm474h9auV9-267" value="" style="edgeStyle=orthogonalEdgeStyle;rounded=0;orthogonalLoop=1;jettySize=auto;html=1;" parent="1" source="AHnlYJfSwKm474h9auV9-246" target="AHnlYJfSwKm474h9auV9-264" edge="1">
          <mxGeometry relative="1" as="geometry" />
        </mxCell>
        <mxCell id="AHnlYJfSwKm474h9auV9-246" value="Menghapus Data" style="whiteSpace=wrap;html=1;fontStyle=0;" parent="1" vertex="1">
          <mxGeometry x="3027.5" y="570" width="110" height="55" as="geometry" />
        </mxCell>
        <mxCell id="AHnlYJfSwKm474h9auV9-266" value="" style="edgeStyle=orthogonalEdgeStyle;rounded=0;orthogonalLoop=1;jettySize=auto;html=1;" parent="1" source="AHnlYJfSwKm474h9auV9-247" target="AHnlYJfSwKm474h9auV9-265" edge="1">
          <mxGeometry relative="1" as="geometry" />
        </mxCell>
        <mxCell id="AHnlYJfSwKm474h9auV9-247" value="Menghapus Data" style="whiteSpace=wrap;html=1;fontStyle=0;" parent="1" vertex="1">
          <mxGeometry x="3027.5" y="687.5" width="110" height="55" as="geometry" />
        </mxCell>
        <mxCell id="AHnlYJfSwKm474h9auV9-272" value="" style="edgeStyle=orthogonalEdgeStyle;rounded=0;orthogonalLoop=1;jettySize=auto;html=1;" parent="1" source="AHnlYJfSwKm474h9auV9-248" target="AHnlYJfSwKm474h9auV9-271" edge="1">
          <mxGeometry relative="1" as="geometry" />
        </mxCell>
        <mxCell id="AHnlYJfSwKm474h9auV9-248" value="Menghapus Data" style="whiteSpace=wrap;html=1;fontStyle=0;" parent="1" vertex="1">
          <mxGeometry x="3027.5" y="805" width="110" height="55" as="geometry" />
        </mxCell>
        <mxCell id="AHnlYJfSwKm474h9auV9-251" value="" style="edgeStyle=orthogonalEdgeStyle;rounded=0;orthogonalLoop=1;jettySize=auto;html=1;entryX=0.505;entryY=0;entryDx=0;entryDy=0;entryPerimeter=0;" parent="1" source="AHnlYJfSwKm474h9auV9-249" target="AHnlYJfSwKm474h9auV9-119" edge="1">
          <mxGeometry relative="1" as="geometry">
            <mxPoint x="2120" y="120" as="targetPoint" />
          </mxGeometry>
        </mxCell>
        <mxCell id="AHnlYJfSwKm474h9auV9-249" value="B" style="ellipse;whiteSpace=wrap;html=1;aspect=fixed;" parent="1" vertex="1">
          <mxGeometry x="2095.5" y="10" width="60" height="60" as="geometry" />
        </mxCell>
        <mxCell id="AHnlYJfSwKm474h9auV9-252" value="C" style="ellipse;whiteSpace=wrap;html=1;aspect=fixed;" parent="1" vertex="1">
          <mxGeometry x="2850" y="30" width="60" height="60" as="geometry" />
        </mxCell>
        <mxCell id="AHnlYJfSwKm474h9auV9-261" value="Data Mobil Berhasil dihapus" style="whiteSpace=wrap;html=1;fontStyle=0;" parent="1" vertex="1">
          <mxGeometry x="3180" y="215" width="110" height="55" as="geometry" />
        </mxCell>
        <mxCell id="AHnlYJfSwKm474h9auV9-262" value="Data Mobil Berhasil dihapus" style="whiteSpace=wrap;html=1;fontStyle=0;" parent="1" vertex="1">
          <mxGeometry x="3180" y="332.5" width="110" height="55" as="geometry" />
        </mxCell>
        <mxCell id="AHnlYJfSwKm474h9auV9-263" value="Data Mobil Berhasil dihapus" style="whiteSpace=wrap;html=1;fontStyle=0;" parent="1" vertex="1">
          <mxGeometry x="3180" y="455" width="110" height="55" as="geometry" />
        </mxCell>
        <mxCell id="AHnlYJfSwKm474h9auV9-264" value="Data Mobil Berhasil dihapus" style="whiteSpace=wrap;html=1;fontStyle=0;" parent="1" vertex="1">
          <mxGeometry x="3180" y="570" width="110" height="55" as="geometry" />
        </mxCell>
        <mxCell id="AHnlYJfSwKm474h9auV9-265" value="Data Mobil Berhasil dihapus" style="whiteSpace=wrap;html=1;fontStyle=0;" parent="1" vertex="1">
          <mxGeometry x="3180" y="687.5" width="110" height="55" as="geometry" />
        </mxCell>
        <mxCell id="AHnlYJfSwKm474h9auV9-271" value="Data Mobil Berhasil dihapus" style="whiteSpace=wrap;html=1;fontStyle=0;" parent="1" vertex="1">
          <mxGeometry x="3180" y="805" width="110" height="55" as="geometry" />
        </mxCell>
        <mxCell id="AHnlYJfSwKm474h9auV9-274" value="Nomer Tidak Valid Kembali ke Menu Utama" style="rounded=1;whiteSpace=wrap;html=1;" parent="1" vertex="1">
          <mxGeometry x="2620" y="135" width="120" height="60" as="geometry" />
        </mxCell>
        <mxCell id="AHnlYJfSwKm474h9auV9-277" value="Tidak" style="text;html=1;align=center;verticalAlign=middle;resizable=0;points=[];autosize=1;strokeColor=none;fillColor=none;" parent="1" vertex="1">
          <mxGeometry x="2770" y="802.5" width="50" height="30" as="geometry" />
        </mxCell>
        <mxCell id="AHnlYJfSwKm474h9auV9-278" value="&lt;b style=&quot;forced-color-adjust: none; color: rgb(0, 0, 0); font-family: Helvetica; font-size: 12px; font-style: normal; font-variant-ligatures: normal; font-variant-caps: normal; letter-spacing: normal; orphans: 2; text-align: center; text-indent: 0px; text-transform: none; widows: 2; word-spacing: 0px; -webkit-text-stroke-width: 0px; white-space: nowrap; background-color: rgb(251, 251, 251); text-decoration-thickness: initial; text-decoration-style: initial; text-decoration-color: initial;&quot;&gt;&lt;font style=&quot;forced-color-adjust: none; font-size: 24px;&quot;&gt;MENU HAPUS DATA&lt;br&gt;&lt;span style=&quot;white-space: pre;&quot;&gt;&#x9;&lt;/span&gt;&amp;nbsp; &amp;nbsp;MOBIL&lt;/font&gt;&lt;/b&gt;" style="text;whiteSpace=wrap;html=1;" parent="1" vertex="1">
          <mxGeometry x="2570" y="10" width="300" height="50" as="geometry" />
        </mxCell>
        <mxCell id="AHnlYJfSwKm474h9auV9-281" value="" style="edgeStyle=orthogonalEdgeStyle;rounded=0;orthogonalLoop=1;jettySize=auto;html=1;" parent="1" source="AHnlYJfSwKm474h9auV9-279" target="AHnlYJfSwKm474h9auV9-280" edge="1">
          <mxGeometry relative="1" as="geometry" />
        </mxCell>
        <mxCell id="AHnlYJfSwKm474h9auV9-279" value="D" style="ellipse;whiteSpace=wrap;html=1;aspect=fixed;" parent="1" vertex="1">
          <mxGeometry x="3820" y="20" width="60" height="60" as="geometry" />
        </mxCell>
        <mxCell id="AHnlYJfSwKm474h9auV9-283" value="" style="edgeStyle=orthogonalEdgeStyle;rounded=0;orthogonalLoop=1;jettySize=auto;html=1;" parent="1" source="AHnlYJfSwKm474h9auV9-280" target="AHnlYJfSwKm474h9auV9-282" edge="1">
          <mxGeometry relative="1" as="geometry" />
        </mxCell>
        <mxCell id="AHnlYJfSwKm474h9auV9-280" value="Menampilkan Daftar Mobil" style="rounded=0;whiteSpace=wrap;html=1;" parent="1" vertex="1">
          <mxGeometry x="3800" y="120" width="100" height="50" as="geometry" />
        </mxCell>
        <mxCell id="AHnlYJfSwKm474h9auV9-282" value="Menampilkan Halaman Rental Mobil Admin" style="rounded=1;whiteSpace=wrap;html=1;" parent="1" vertex="1">
          <mxGeometry x="3795" y="226.25" width="110" height="53.75" as="geometry" />
        </mxCell>
        <mxCell id="AHnlYJfSwKm474h9auV9-284" value="&lt;b style=&quot;color: rgb(0, 0, 0); text-wrap-mode: nowrap; text-align: center; background-color: rgb(251, 251, 251);&quot;&gt;&lt;font style=&quot;font-size: 24px;&quot;&gt;MENU TAMPILKAN MOBIL&lt;/font&gt;&lt;/b&gt;" style="text;whiteSpace=wrap;html=1;" parent="1" vertex="1">
          <mxGeometry x="3420" y="25" width="320" height="50" as="geometry" />
        </mxCell>
        <mxCell id="AHnlYJfSwKm474h9auV9-286" value="" style="edgeStyle=orthogonalEdgeStyle;rounded=0;orthogonalLoop=1;jettySize=auto;html=1;" parent="1" source="AHnlYJfSwKm474h9auV9-287" target="AHnlYJfSwKm474h9auV9-290" edge="1">
          <mxGeometry relative="1" as="geometry" />
        </mxCell>
        <mxCell id="AHnlYJfSwKm474h9auV9-287" value="LOGIN" style="rounded=1;whiteSpace=wrap;html=1;" parent="1" vertex="1">
          <mxGeometry x="4619" y="60" width="120" height="40" as="geometry" />
        </mxCell>
        <mxCell id="AHnlYJfSwKm474h9auV9-288" value="" style="edgeStyle=orthogonalEdgeStyle;rounded=0;orthogonalLoop=1;jettySize=auto;html=1;entryX=0;entryY=0.5;entryDx=0;entryDy=0;exitX=0;exitY=0.5;exitDx=0;exitDy=0;" parent="1" edge="1">
          <mxGeometry relative="1" as="geometry">
            <mxPoint x="4629" y="200" as="sourcePoint" />
            <mxPoint x="4619" y="75" as="targetPoint" />
            <Array as="points">
              <mxPoint x="4629" y="205" />
              <mxPoint x="4550" y="205" />
              <mxPoint x="4550" y="75" />
            </Array>
          </mxGeometry>
        </mxCell>
        <mxCell id="AHnlYJfSwKm474h9auV9-289" value="" style="edgeStyle=orthogonalEdgeStyle;rounded=0;orthogonalLoop=1;jettySize=auto;html=1;" parent="1" source="AHnlYJfSwKm474h9auV9-290" edge="1">
          <mxGeometry relative="1" as="geometry">
            <mxPoint x="4679" y="300" as="targetPoint" />
          </mxGeometry>
        </mxCell>
        <mxCell id="AHnlYJfSwKm474h9auV9-290" value="Jika Menuliskan&amp;nbsp; ID : user" style="rhombus;whiteSpace=wrap;html=1;" parent="1" vertex="1">
          <mxGeometry x="4629" y="150" width="100" height="110" as="geometry" />
        </mxCell>
        <mxCell id="AHnlYJfSwKm474h9auV9-291" value="YA" style="text;html=1;align=center;verticalAlign=middle;resizable=0;points=[];autosize=1;strokeColor=none;fillColor=none;" parent="1" vertex="1">
          <mxGeometry x="4669" y="260" width="40" height="30" as="geometry" />
        </mxCell>
        <mxCell id="AHnlYJfSwKm474h9auV9-292" value="" style="edgeStyle=orthogonalEdgeStyle;rounded=0;orthogonalLoop=1;jettySize=auto;html=1;" parent="1" source="AHnlYJfSwKm474h9auV9-293" target="AHnlYJfSwKm474h9auV9-297" edge="1">
          <mxGeometry relative="1" as="geometry" />
        </mxCell>
        <mxCell id="AHnlYJfSwKm474h9auV9-293" value="Menampilkan Halaman Rental Mobil user" style="rounded=0;whiteSpace=wrap;html=1;" parent="1" vertex="1">
          <mxGeometry x="4619" y="300" width="120" height="60" as="geometry" />
        </mxCell>
        <mxCell id="AHnlYJfSwKm474h9auV9-294" value="A" style="ellipse;whiteSpace=wrap;html=1;aspect=fixed;" parent="1" vertex="1">
          <mxGeometry x="4769" y="410" width="60" height="60" as="geometry" />
        </mxCell>
        <mxCell id="AHnlYJfSwKm474h9auV9-295" value="" style="edgeStyle=orthogonalEdgeStyle;rounded=0;orthogonalLoop=1;jettySize=auto;html=1;" parent="1" source="AHnlYJfSwKm474h9auV9-297" target="AHnlYJfSwKm474h9auV9-300" edge="1">
          <mxGeometry relative="1" as="geometry" />
        </mxCell>
        <mxCell id="AHnlYJfSwKm474h9auV9-296" value="" style="edgeStyle=orthogonalEdgeStyle;rounded=0;orthogonalLoop=1;jettySize=auto;html=1;" parent="1" source="AHnlYJfSwKm474h9auV9-297" target="AHnlYJfSwKm474h9auV9-294" edge="1">
          <mxGeometry relative="1" as="geometry" />
        </mxCell>
        <mxCell id="AHnlYJfSwKm474h9auV9-297" value="&lt;div&gt;&lt;br&gt;&lt;/div&gt;User Memilih menu 1" style="rhombus;whiteSpace=wrap;html=1;rounded=0;" parent="1" vertex="1">
          <mxGeometry x="4629" y="390" width="100" height="100" as="geometry" />
        </mxCell>
        <mxCell id="AHnlYJfSwKm474h9auV9-298" value="" style="edgeStyle=orthogonalEdgeStyle;rounded=0;orthogonalLoop=1;jettySize=auto;html=1;" parent="1" source="AHnlYJfSwKm474h9auV9-300" target="AHnlYJfSwKm474h9auV9-303" edge="1">
          <mxGeometry relative="1" as="geometry" />
        </mxCell>
        <mxCell id="AHnlYJfSwKm474h9auV9-299" value="" style="edgeStyle=orthogonalEdgeStyle;rounded=0;orthogonalLoop=1;jettySize=auto;html=1;" parent="1" source="AHnlYJfSwKm474h9auV9-300" target="AHnlYJfSwKm474h9auV9-313" edge="1">
          <mxGeometry relative="1" as="geometry" />
        </mxCell>
        <mxCell id="AHnlYJfSwKm474h9auV9-300" value="&lt;div&gt;&lt;br&gt;&lt;/div&gt;User Memilih menu 2" style="rhombus;whiteSpace=wrap;html=1;rounded=0;" parent="1" vertex="1">
          <mxGeometry x="4629" y="520" width="100" height="100" as="geometry" />
        </mxCell>
        <mxCell id="AHnlYJfSwKm474h9auV9-301" value="" style="edgeStyle=orthogonalEdgeStyle;rounded=0;orthogonalLoop=1;jettySize=auto;html=1;entryX=0.5;entryY=0;entryDx=0;entryDy=0;" parent="1" source="AHnlYJfSwKm474h9auV9-303" target="AHnlYJfSwKm474h9auV9-309" edge="1">
          <mxGeometry relative="1" as="geometry">
            <mxPoint x="4679" y="780" as="targetPoint" />
          </mxGeometry>
        </mxCell>
        <mxCell id="AHnlYJfSwKm474h9auV9-302" value="" style="edgeStyle=orthogonalEdgeStyle;rounded=0;orthogonalLoop=1;jettySize=auto;html=1;" parent="1" source="AHnlYJfSwKm474h9auV9-303" target="AHnlYJfSwKm474h9auV9-312" edge="1">
          <mxGeometry relative="1" as="geometry" />
        </mxCell>
        <mxCell id="AHnlYJfSwKm474h9auV9-303" value="&lt;div&gt;&lt;br&gt;&lt;/div&gt;User Memilih menu 3" style="rhombus;whiteSpace=wrap;html=1;rounded=0;" parent="1" vertex="1">
          <mxGeometry x="4629" y="650" width="100" height="100" as="geometry" />
        </mxCell>
        <mxCell id="AHnlYJfSwKm474h9auV9-307" value="" style="edgeStyle=orthogonalEdgeStyle;rounded=0;orthogonalLoop=1;jettySize=auto;html=1;" parent="1" source="AHnlYJfSwKm474h9auV9-309" target="AHnlYJfSwKm474h9auV9-310" edge="1">
          <mxGeometry relative="1" as="geometry" />
        </mxCell>
        <mxCell id="AHnlYJfSwKm474h9auV9-327" value="" style="edgeStyle=orthogonalEdgeStyle;rounded=0;orthogonalLoop=1;jettySize=auto;html=1;entryX=0;entryY=0.5;entryDx=0;entryDy=0;" parent="1" source="AHnlYJfSwKm474h9auV9-309" target="AHnlYJfSwKm474h9auV9-293" edge="1">
          <mxGeometry relative="1" as="geometry">
            <mxPoint x="4450" y="330" as="targetPoint" />
            <Array as="points">
              <mxPoint x="4451" y="834" />
              <mxPoint x="4451" y="330" />
            </Array>
          </mxGeometry>
        </mxCell>
        <mxCell id="AHnlYJfSwKm474h9auV9-309" value="&lt;div&gt;&lt;br&gt;&lt;/div&gt;User Memilih menu 4" style="rhombus;whiteSpace=wrap;html=1;rounded=0;" parent="1" vertex="1">
          <mxGeometry x="4629" y="783.75" width="100" height="100" as="geometry" />
        </mxCell>
        <mxCell id="AHnlYJfSwKm474h9auV9-310" value="SELESAI" style="rounded=1;whiteSpace=wrap;html=1;" parent="1" vertex="1">
          <mxGeometry x="4629" y="930" width="100" height="50" as="geometry" />
        </mxCell>
        <mxCell id="AHnlYJfSwKm474h9auV9-312" value="C" style="ellipse;whiteSpace=wrap;html=1;aspect=fixed;" parent="1" vertex="1">
          <mxGeometry x="4769" y="670" width="60" height="60" as="geometry" />
        </mxCell>
        <mxCell id="AHnlYJfSwKm474h9auV9-313" value="B" style="ellipse;whiteSpace=wrap;html=1;aspect=fixed;" parent="1" vertex="1">
          <mxGeometry x="4769" y="540" width="60" height="60" as="geometry" />
        </mxCell>
        <mxCell id="AHnlYJfSwKm474h9auV9-314" value="YA" style="text;html=1;align=center;verticalAlign=middle;resizable=0;points=[];autosize=1;strokeColor=none;fillColor=none;" parent="1" vertex="1">
          <mxGeometry x="4719" y="410" width="40" height="30" as="geometry" />
        </mxCell>
        <mxCell id="AHnlYJfSwKm474h9auV9-315" value="TIDAK" style="text;html=1;align=center;verticalAlign=middle;resizable=0;points=[];autosize=1;strokeColor=none;fillColor=none;" parent="1" vertex="1">
          <mxGeometry x="4629" y="360" width="60" height="30" as="geometry" />
        </mxCell>
        <mxCell id="AHnlYJfSwKm474h9auV9-316" value="TIDAK" style="text;html=1;align=center;verticalAlign=middle;resizable=0;points=[];autosize=1;strokeColor=none;fillColor=none;" parent="1" vertex="1">
          <mxGeometry x="4559" y="180" width="60" height="30" as="geometry" />
        </mxCell>
        <mxCell id="AHnlYJfSwKm474h9auV9-317" value="YA" style="text;html=1;align=center;verticalAlign=middle;resizable=0;points=[];autosize=1;strokeColor=none;fillColor=none;" parent="1" vertex="1">
          <mxGeometry x="4719" y="540" width="40" height="30" as="geometry" />
        </mxCell>
        <mxCell id="AHnlYJfSwKm474h9auV9-318" value="TIDAK" style="text;html=1;align=center;verticalAlign=middle;resizable=0;points=[];autosize=1;strokeColor=none;fillColor=none;" parent="1" vertex="1">
          <mxGeometry x="4619" y="490" width="60" height="30" as="geometry" />
        </mxCell>
        <mxCell id="AHnlYJfSwKm474h9auV9-319" value="YA" style="text;html=1;align=center;verticalAlign=middle;resizable=0;points=[];autosize=1;strokeColor=none;fillColor=none;" parent="1" vertex="1">
          <mxGeometry x="4719" y="670" width="40" height="30" as="geometry" />
        </mxCell>
        <mxCell id="AHnlYJfSwKm474h9auV9-321" value="YA" style="text;html=1;align=center;verticalAlign=middle;resizable=0;points=[];autosize=1;strokeColor=none;fillColor=none;" parent="1" vertex="1">
          <mxGeometry x="4669" y="883.75" width="40" height="30" as="geometry" />
        </mxCell>
        <mxCell id="AHnlYJfSwKm474h9auV9-322" value="TIDAK" style="text;html=1;align=center;verticalAlign=middle;resizable=0;points=[];autosize=1;strokeColor=none;fillColor=none;" parent="1" vertex="1">
          <mxGeometry x="4619" y="620" width="60" height="30" as="geometry" />
        </mxCell>
        <mxCell id="AHnlYJfSwKm474h9auV9-323" value="TIDAK" style="text;html=1;align=center;verticalAlign=middle;resizable=0;points=[];autosize=1;strokeColor=none;fillColor=none;" parent="1" vertex="1">
          <mxGeometry x="4619" y="740" width="60" height="30" as="geometry" />
        </mxCell>
        <mxCell id="AHnlYJfSwKm474h9auV9-325" value="TIDAK" style="text;html=1;align=center;verticalAlign=middle;resizable=0;points=[];autosize=1;strokeColor=none;fillColor=none;" parent="1" vertex="1">
          <mxGeometry x="4569" y="810" width="60" height="30" as="geometry" />
        </mxCell>
        <mxCell id="AHnlYJfSwKm474h9auV9-329" value="&lt;b style=&quot;color: rgb(0, 0, 0); text-wrap-mode: nowrap; text-align: center; background-color: rgb(251, 251, 251);&quot;&gt;&lt;font style=&quot;font-size: 24px;&quot;&gt;USER&lt;/font&gt;&lt;/b&gt;" style="text;whiteSpace=wrap;html=1;" parent="1" vertex="1">
          <mxGeometry x="4320" y="20" width="81" height="50" as="geometry" />
        </mxCell>
        <mxCell id="AHnlYJfSwKm474h9auV9-330" value="" style="edgeStyle=orthogonalEdgeStyle;rounded=0;orthogonalLoop=1;jettySize=auto;html=1;" parent="1" source="AHnlYJfSwKm474h9auV9-331" target="AHnlYJfSwKm474h9auV9-333" edge="1">
          <mxGeometry relative="1" as="geometry" />
        </mxCell>
        <mxCell id="AHnlYJfSwKm474h9auV9-331" value="A" style="ellipse;whiteSpace=wrap;html=1;aspect=fixed;" parent="1" vertex="1">
          <mxGeometry x="5495" y="50" width="60" height="60" as="geometry" />
        </mxCell>
        <mxCell id="AHnlYJfSwKm474h9auV9-332" value="" style="edgeStyle=orthogonalEdgeStyle;rounded=0;orthogonalLoop=1;jettySize=auto;html=1;" parent="1" source="AHnlYJfSwKm474h9auV9-333" target="AHnlYJfSwKm474h9auV9-334" edge="1">
          <mxGeometry relative="1" as="geometry" />
        </mxCell>
        <mxCell id="AHnlYJfSwKm474h9auV9-333" value="Menampilkan Daftar Mobil yang Tersedia" style="rounded=0;whiteSpace=wrap;html=1;" parent="1" vertex="1">
          <mxGeometry x="5475" y="150" width="100" height="50" as="geometry" />
        </mxCell>
        <mxCell id="AHnlYJfSwKm474h9auV9-334" value="Menampilkan Halaman Rental Mobil Admin" style="rounded=1;whiteSpace=wrap;html=1;" parent="1" vertex="1">
          <mxGeometry x="5470" y="256.25" width="110" height="53.75" as="geometry" />
        </mxCell>
        <mxCell id="AHnlYJfSwKm474h9auV9-335" value="&lt;b style=&quot;color: rgb(0, 0, 0); text-wrap-mode: nowrap; text-align: center; background-color: rgb(251, 251, 251);&quot;&gt;&lt;font style=&quot;font-size: 24px;&quot;&gt;MENU TAMPILKAN MOBIL&lt;/font&gt;&lt;/b&gt;&lt;div&gt;&lt;b style=&quot;color: rgb(0, 0, 0); text-wrap-mode: nowrap; text-align: center; background-color: rgb(251, 251, 251);&quot;&gt;&lt;font style=&quot;font-size: 24px;&quot;&gt;&amp;nbsp; &amp;nbsp; &amp;nbsp; YANG TERSEDIA&lt;/font&gt;&lt;/b&gt;&lt;/div&gt;" style="text;whiteSpace=wrap;html=1;" parent="1" vertex="1">
          <mxGeometry x="5110" y="10" width="320" height="50" as="geometry" />
        </mxCell>
        <mxCell id="9BxBJnp0o42DT9YIsXTV-3" value="" style="edgeStyle=orthogonalEdgeStyle;rounded=0;orthogonalLoop=1;jettySize=auto;html=1;" edge="1" parent="1" source="9BxBJnp0o42DT9YIsXTV-1" target="9BxBJnp0o42DT9YIsXTV-2">
          <mxGeometry relative="1" as="geometry" />
        </mxCell>
        <mxCell id="9BxBJnp0o42DT9YIsXTV-1" value="B" style="ellipse;whiteSpace=wrap;html=1;aspect=fixed;" vertex="1" parent="1">
          <mxGeometry x="6345" y="20" width="60" height="60" as="geometry" />
        </mxCell>
        <mxCell id="9BxBJnp0o42DT9YIsXTV-5" value="" style="edgeStyle=orthogonalEdgeStyle;rounded=0;orthogonalLoop=1;jettySize=auto;html=1;" edge="1" parent="1" source="9BxBJnp0o42DT9YIsXTV-2" target="9BxBJnp0o42DT9YIsXTV-4">
          <mxGeometry relative="1" as="geometry" />
        </mxCell>
        <mxCell id="9BxBJnp0o42DT9YIsXTV-7" value="" style="edgeStyle=orthogonalEdgeStyle;rounded=0;orthogonalLoop=1;jettySize=auto;html=1;" edge="1" parent="1" source="9BxBJnp0o42DT9YIsXTV-2" target="9BxBJnp0o42DT9YIsXTV-6">
          <mxGeometry relative="1" as="geometry">
            <Array as="points">
              <mxPoint x="6375" y="275" />
              <mxPoint x="6640" y="275" />
              <mxPoint x="6640" y="335" />
            </Array>
          </mxGeometry>
        </mxCell>
        <mxCell id="9BxBJnp0o42DT9YIsXTV-2" value="&lt;div&gt;Filter&lt;/div&gt;Solar/Bensin" style="rhombus;whiteSpace=wrap;html=1;" vertex="1" parent="1">
          <mxGeometry x="6330" y="140" width="90" height="100" as="geometry" />
        </mxCell>
        <mxCell id="9BxBJnp0o42DT9YIsXTV-4" value="Kembali ke menu utama" style="whiteSpace=wrap;html=1;" vertex="1" parent="1">
          <mxGeometry x="5970" y="160" width="120" height="60" as="geometry" />
        </mxCell>
        <mxCell id="9BxBJnp0o42DT9YIsXTV-25" value="" style="edgeStyle=orthogonalEdgeStyle;rounded=0;orthogonalLoop=1;jettySize=auto;html=1;" edge="1" parent="1" source="9BxBJnp0o42DT9YIsXTV-6" target="9BxBJnp0o42DT9YIsXTV-24">
          <mxGeometry relative="1" as="geometry" />
        </mxCell>
        <mxCell id="9BxBJnp0o42DT9YIsXTV-6" value="Menampilakan Jenis Mobil BBM Solar" style="whiteSpace=wrap;html=1;" vertex="1" parent="1">
          <mxGeometry x="6580" y="313" width="110" height="50" as="geometry" />
        </mxCell>
        <mxCell id="9BxBJnp0o42DT9YIsXTV-29" value="" style="edgeStyle=orthogonalEdgeStyle;rounded=0;orthogonalLoop=1;jettySize=auto;html=1;" edge="1" parent="1" source="9BxBJnp0o42DT9YIsXTV-8" target="9BxBJnp0o42DT9YIsXTV-28">
          <mxGeometry relative="1" as="geometry" />
        </mxCell>
        <mxCell id="9BxBJnp0o42DT9YIsXTV-8" value="Menampilakan Jenis Mobil BBM Bensin" style="whiteSpace=wrap;html=1;" vertex="1" parent="1">
          <mxGeometry x="6040" y="312.5" width="110" height="50" as="geometry" />
        </mxCell>
        <mxCell id="9BxBJnp0o42DT9YIsXTV-19" value="" style="endArrow=none;html=1;rounded=0;" edge="1" parent="1">
          <mxGeometry width="50" height="50" relative="1" as="geometry">
            <mxPoint x="6090" y="276" as="sourcePoint" />
            <mxPoint x="6375" y="275.5" as="targetPoint" />
          </mxGeometry>
        </mxCell>
        <mxCell id="9BxBJnp0o42DT9YIsXTV-20" value="" style="endArrow=classic;html=1;rounded=0;" edge="1" parent="1">
          <mxGeometry width="50" height="50" relative="1" as="geometry">
            <mxPoint x="6090" y="276.25" as="sourcePoint" />
            <mxPoint x="6090" y="311.25" as="targetPoint" />
          </mxGeometry>
        </mxCell>
        <mxCell id="9BxBJnp0o42DT9YIsXTV-22" value="YA" style="text;html=1;align=center;verticalAlign=middle;resizable=0;points=[];autosize=1;strokeColor=none;fillColor=none;" vertex="1" parent="1">
          <mxGeometry x="6365" y="240" width="40" height="30" as="geometry" />
        </mxCell>
        <mxCell id="9BxBJnp0o42DT9YIsXTV-23" value="Tidak" style="text;html=1;align=center;verticalAlign=middle;resizable=0;points=[];autosize=1;strokeColor=none;fillColor=none;" vertex="1" parent="1">
          <mxGeometry x="6280" y="163.75" width="50" height="30" as="geometry" />
        </mxCell>
        <mxCell id="9BxBJnp0o42DT9YIsXTV-27" value="" style="edgeStyle=orthogonalEdgeStyle;rounded=0;orthogonalLoop=1;jettySize=auto;html=1;" edge="1" parent="1" source="9BxBJnp0o42DT9YIsXTV-24" target="9BxBJnp0o42DT9YIsXTV-26">
          <mxGeometry relative="1" as="geometry" />
        </mxCell>
        <mxCell id="9BxBJnp0o42DT9YIsXTV-45" value="" style="edgeStyle=orthogonalEdgeStyle;rounded=0;orthogonalLoop=1;jettySize=auto;html=1;entryX=1;entryY=0.5;entryDx=0;entryDy=0;" edge="1" parent="1">
          <mxGeometry relative="1" as="geometry">
            <mxPoint x="6580" y="450" as="sourcePoint" />
            <mxPoint x="6435" y="350" as="targetPoint" />
            <Array as="points">
              <mxPoint x="6500" y="450" />
              <mxPoint x="6500" y="350" />
            </Array>
          </mxGeometry>
        </mxCell>
        <mxCell id="9BxBJnp0o42DT9YIsXTV-24" value="Memilih Primary Key 1" style="rhombus;whiteSpace=wrap;html=1;" vertex="1" parent="1">
          <mxGeometry x="6580" y="395" width="110" height="110" as="geometry" />
        </mxCell>
        <mxCell id="9BxBJnp0o42DT9YIsXTV-26" value="Memilih Primary Key 2" style="rhombus;whiteSpace=wrap;html=1;" vertex="1" parent="1">
          <mxGeometry x="6580" y="543" width="110" height="110" as="geometry" />
        </mxCell>
        <mxCell id="9BxBJnp0o42DT9YIsXTV-31" value="" style="edgeStyle=orthogonalEdgeStyle;rounded=0;orthogonalLoop=1;jettySize=auto;html=1;" edge="1" parent="1" source="9BxBJnp0o42DT9YIsXTV-28" target="9BxBJnp0o42DT9YIsXTV-30">
          <mxGeometry relative="1" as="geometry" />
        </mxCell>
        <mxCell id="9BxBJnp0o42DT9YIsXTV-43" value="" style="edgeStyle=orthogonalEdgeStyle;rounded=0;orthogonalLoop=1;jettySize=auto;html=1;" edge="1" parent="1" source="9BxBJnp0o42DT9YIsXTV-28" target="9BxBJnp0o42DT9YIsXTV-42">
          <mxGeometry relative="1" as="geometry">
            <Array as="points">
              <mxPoint x="6250" y="450" />
              <mxPoint x="6250" y="350" />
            </Array>
          </mxGeometry>
        </mxCell>
        <mxCell id="9BxBJnp0o42DT9YIsXTV-28" value="Memilih Primary Key 1" style="rhombus;whiteSpace=wrap;html=1;" vertex="1" parent="1">
          <mxGeometry x="6040" y="395" width="110" height="110" as="geometry" />
        </mxCell>
        <mxCell id="9BxBJnp0o42DT9YIsXTV-34" value="" style="edgeStyle=orthogonalEdgeStyle;rounded=0;orthogonalLoop=1;jettySize=auto;html=1;" edge="1" parent="1" source="9BxBJnp0o42DT9YIsXTV-30" target="9BxBJnp0o42DT9YIsXTV-33">
          <mxGeometry relative="1" as="geometry" />
        </mxCell>
        <mxCell id="9BxBJnp0o42DT9YIsXTV-30" value="Memilih Primary Key 2" style="rhombus;whiteSpace=wrap;html=1;" vertex="1" parent="1">
          <mxGeometry x="6040" y="542.5" width="110" height="110" as="geometry" />
        </mxCell>
        <mxCell id="9BxBJnp0o42DT9YIsXTV-92" value="" style="edgeStyle=orthogonalEdgeStyle;rounded=0;orthogonalLoop=1;jettySize=auto;html=1;" edge="1" parent="1">
          <mxGeometry relative="1" as="geometry">
            <mxPoint x="6095" y="933.75" as="sourcePoint" />
            <mxPoint x="6370" y="905" as="targetPoint" />
            <Array as="points">
              <mxPoint x="6095" y="1015" />
              <mxPoint x="6371" y="1015" />
            </Array>
          </mxGeometry>
        </mxCell>
        <mxCell id="9BxBJnp0o42DT9YIsXTV-32" value="Memilih Primary Key 4" style="rhombus;whiteSpace=wrap;html=1;" vertex="1" parent="1">
          <mxGeometry x="6040" y="828.75" width="110" height="110" as="geometry" />
        </mxCell>
        <mxCell id="9BxBJnp0o42DT9YIsXTV-35" value="" style="edgeStyle=orthogonalEdgeStyle;rounded=0;orthogonalLoop=1;jettySize=auto;html=1;" edge="1" parent="1" source="9BxBJnp0o42DT9YIsXTV-33" target="9BxBJnp0o42DT9YIsXTV-32">
          <mxGeometry relative="1" as="geometry" />
        </mxCell>
        <mxCell id="9BxBJnp0o42DT9YIsXTV-33" value="Memilih Primary Key 3" style="rhombus;whiteSpace=wrap;html=1;" vertex="1" parent="1">
          <mxGeometry x="6040" y="685" width="110" height="110" as="geometry" />
        </mxCell>
        <mxCell id="9BxBJnp0o42DT9YIsXTV-37" value="YA" style="text;html=1;align=center;verticalAlign=middle;resizable=0;points=[];autosize=1;strokeColor=none;fillColor=none;" vertex="1" parent="1">
          <mxGeometry x="6210" y="420" width="40" height="30" as="geometry" />
        </mxCell>
        <mxCell id="9BxBJnp0o42DT9YIsXTV-38" value="Tidak" style="text;html=1;align=center;verticalAlign=middle;resizable=0;points=[];autosize=1;strokeColor=none;fillColor=none;" vertex="1" parent="1">
          <mxGeometry x="6090" y="507.5" width="50" height="30" as="geometry" />
        </mxCell>
        <mxCell id="9BxBJnp0o42DT9YIsXTV-39" value="Tidak" style="text;html=1;align=center;verticalAlign=middle;resizable=0;points=[];autosize=1;strokeColor=none;fillColor=none;" vertex="1" parent="1">
          <mxGeometry x="6090" y="790" width="50" height="30" as="geometry" />
        </mxCell>
        <mxCell id="9BxBJnp0o42DT9YIsXTV-40" value="Tidak" style="text;html=1;align=center;verticalAlign=middle;resizable=0;points=[];autosize=1;strokeColor=none;fillColor=none;" vertex="1" parent="1">
          <mxGeometry x="6630" y="507.5" width="50" height="30" as="geometry" />
        </mxCell>
        <mxCell id="9BxBJnp0o42DT9YIsXTV-41" value="Tidak" style="text;html=1;align=center;verticalAlign=middle;resizable=0;points=[];autosize=1;strokeColor=none;fillColor=none;" vertex="1" parent="1">
          <mxGeometry x="6090" y="647.5" width="50" height="30" as="geometry" />
        </mxCell>
        <mxCell id="9BxBJnp0o42DT9YIsXTV-69" value="" style="edgeStyle=orthogonalEdgeStyle;rounded=0;orthogonalLoop=1;jettySize=auto;html=1;" edge="1" parent="1" source="9BxBJnp0o42DT9YIsXTV-42" target="9BxBJnp0o42DT9YIsXTV-68">
          <mxGeometry relative="1" as="geometry" />
        </mxCell>
        <mxCell id="9BxBJnp0o42DT9YIsXTV-42" value="Menampilkan Daftar Mobil dari Setiap kata yang sudah di Filter" style="whiteSpace=wrap;html=1;" vertex="1" parent="1">
          <mxGeometry x="6315" y="320" width="120" height="60" as="geometry" />
        </mxCell>
        <mxCell id="9BxBJnp0o42DT9YIsXTV-52" value="" style="endArrow=none;html=1;rounded=0;exitX=1;exitY=0.5;exitDx=0;exitDy=0;" edge="1" parent="1" source="9BxBJnp0o42DT9YIsXTV-30">
          <mxGeometry width="50" height="50" relative="1" as="geometry">
            <mxPoint x="6310" y="700" as="sourcePoint" />
            <mxPoint x="6210" y="598" as="targetPoint" />
            <Array as="points" />
          </mxGeometry>
        </mxCell>
        <mxCell id="9BxBJnp0o42DT9YIsXTV-54" value="" style="endArrow=none;html=1;rounded=0;" edge="1" parent="1">
          <mxGeometry width="50" height="50" relative="1" as="geometry">
            <mxPoint x="6210" y="597.5" as="sourcePoint" />
            <mxPoint x="6210" y="450" as="targetPoint" />
          </mxGeometry>
        </mxCell>
        <mxCell id="9BxBJnp0o42DT9YIsXTV-56" value="" style="endArrow=none;html=1;rounded=0;exitX=1;exitY=0.5;exitDx=0;exitDy=0;" edge="1" parent="1">
          <mxGeometry width="50" height="50" relative="1" as="geometry">
            <mxPoint x="6150" y="740" as="sourcePoint" />
            <mxPoint x="6210" y="740" as="targetPoint" />
            <Array as="points" />
          </mxGeometry>
        </mxCell>
        <mxCell id="9BxBJnp0o42DT9YIsXTV-57" value="" style="endArrow=none;html=1;rounded=0;exitX=1;exitY=0.5;exitDx=0;exitDy=0;" edge="1" parent="1">
          <mxGeometry width="50" height="50" relative="1" as="geometry">
            <mxPoint x="6150" y="883.5" as="sourcePoint" />
            <mxPoint x="6210" y="883.5" as="targetPoint" />
            <Array as="points" />
          </mxGeometry>
        </mxCell>
        <mxCell id="9BxBJnp0o42DT9YIsXTV-58" value="" style="endArrow=none;html=1;rounded=0;" edge="1" parent="1">
          <mxGeometry width="50" height="50" relative="1" as="geometry">
            <mxPoint x="6210" y="740" as="sourcePoint" />
            <mxPoint x="6210" y="592.5" as="targetPoint" />
          </mxGeometry>
        </mxCell>
        <mxCell id="9BxBJnp0o42DT9YIsXTV-59" value="" style="endArrow=none;html=1;rounded=0;" edge="1" parent="1">
          <mxGeometry width="50" height="50" relative="1" as="geometry">
            <mxPoint x="6210" y="883.75" as="sourcePoint" />
            <mxPoint x="6210" y="736.25" as="targetPoint" />
          </mxGeometry>
        </mxCell>
        <mxCell id="9BxBJnp0o42DT9YIsXTV-60" value="" style="endArrow=none;html=1;rounded=0;" edge="1" parent="1">
          <mxGeometry width="50" height="50" relative="1" as="geometry">
            <mxPoint x="6540" y="599" as="sourcePoint" />
            <mxPoint x="6580" y="599" as="targetPoint" />
            <Array as="points" />
          </mxGeometry>
        </mxCell>
        <mxCell id="9BxBJnp0o42DT9YIsXTV-62" value="" style="endArrow=none;html=1;rounded=0;" edge="1" parent="1">
          <mxGeometry width="50" height="50" relative="1" as="geometry">
            <mxPoint x="6540" y="600" as="sourcePoint" />
            <mxPoint x="6540" y="450" as="targetPoint" />
          </mxGeometry>
        </mxCell>
        <mxCell id="9BxBJnp0o42DT9YIsXTV-63" value="YA" style="text;html=1;align=center;verticalAlign=middle;resizable=0;points=[];autosize=1;strokeColor=none;fillColor=none;" vertex="1" parent="1">
          <mxGeometry x="6500" y="420" width="40" height="30" as="geometry" />
        </mxCell>
        <mxCell id="9BxBJnp0o42DT9YIsXTV-64" value="YA" style="text;html=1;align=center;verticalAlign=middle;resizable=0;points=[];autosize=1;strokeColor=none;fillColor=none;" vertex="1" parent="1">
          <mxGeometry x="6160" y="568.75" width="40" height="30" as="geometry" />
        </mxCell>
        <mxCell id="9BxBJnp0o42DT9YIsXTV-65" value="YA" style="text;html=1;align=center;verticalAlign=middle;resizable=0;points=[];autosize=1;strokeColor=none;fillColor=none;" vertex="1" parent="1">
          <mxGeometry x="6160" y="710" width="40" height="30" as="geometry" />
        </mxCell>
        <mxCell id="9BxBJnp0o42DT9YIsXTV-66" value="YA" style="text;html=1;align=center;verticalAlign=middle;resizable=0;points=[];autosize=1;strokeColor=none;fillColor=none;" vertex="1" parent="1">
          <mxGeometry x="6160" y="850" width="40" height="30" as="geometry" />
        </mxCell>
        <mxCell id="9BxBJnp0o42DT9YIsXTV-67" value="YA" style="text;html=1;align=center;verticalAlign=middle;resizable=0;points=[];autosize=1;strokeColor=none;fillColor=none;" vertex="1" parent="1">
          <mxGeometry x="6543" y="568.75" width="40" height="30" as="geometry" />
        </mxCell>
        <mxCell id="9BxBJnp0o42DT9YIsXTV-71" value="" style="edgeStyle=orthogonalEdgeStyle;rounded=0;orthogonalLoop=1;jettySize=auto;html=1;" edge="1" parent="1" source="9BxBJnp0o42DT9YIsXTV-68" target="9BxBJnp0o42DT9YIsXTV-70">
          <mxGeometry relative="1" as="geometry" />
        </mxCell>
        <mxCell id="9BxBJnp0o42DT9YIsXTV-68" value="Memasukkan Penyewaan Berupa Hari/Mingu/Bulan" style="whiteSpace=wrap;html=1;" vertex="1" parent="1">
          <mxGeometry x="6315" y="430" width="120" height="60" as="geometry" />
        </mxCell>
        <mxCell id="9BxBJnp0o42DT9YIsXTV-73" value="" style="edgeStyle=orthogonalEdgeStyle;rounded=0;orthogonalLoop=1;jettySize=auto;html=1;" edge="1" parent="1" source="9BxBJnp0o42DT9YIsXTV-70" target="9BxBJnp0o42DT9YIsXTV-72">
          <mxGeometry relative="1" as="geometry" />
        </mxCell>
        <mxCell id="9BxBJnp0o42DT9YIsXTV-70" value="Memasukkan lama penyewaan Hari/Minggu/Bulan" style="whiteSpace=wrap;html=1;" vertex="1" parent="1">
          <mxGeometry x="6315" y="540" width="120" height="60" as="geometry" />
        </mxCell>
        <mxCell id="9BxBJnp0o42DT9YIsXTV-75" value="" style="edgeStyle=orthogonalEdgeStyle;rounded=0;orthogonalLoop=1;jettySize=auto;html=1;" edge="1" parent="1" source="9BxBJnp0o42DT9YIsXTV-72">
          <mxGeometry relative="1" as="geometry">
            <mxPoint x="6375" y="753.75" as="targetPoint" />
          </mxGeometry>
        </mxCell>
        <mxCell id="9BxBJnp0o42DT9YIsXTV-72" value="Mobil Berhasil disewa" style="whiteSpace=wrap;html=1;" vertex="1" parent="1">
          <mxGeometry x="6315" y="650" width="120" height="60" as="geometry" />
        </mxCell>
        <mxCell id="9BxBJnp0o42DT9YIsXTV-82" value="" style="edgeStyle=orthogonalEdgeStyle;rounded=0;orthogonalLoop=1;jettySize=auto;html=1;" edge="1" parent="1" source="9BxBJnp0o42DT9YIsXTV-76" target="9BxBJnp0o42DT9YIsXTV-81">
          <mxGeometry relative="1" as="geometry" />
        </mxCell>
        <mxCell id="9BxBJnp0o42DT9YIsXTV-76" value="Menampilkan Bon penyewaan mobil&amp;nbsp;" style="whiteSpace=wrap;html=1;" vertex="1" parent="1">
          <mxGeometry x="6315" y="755" width="120" height="60" as="geometry" />
        </mxCell>
        <mxCell id="9BxBJnp0o42DT9YIsXTV-81" value="Kembali ke menu utama" style="whiteSpace=wrap;html=1;" vertex="1" parent="1">
          <mxGeometry x="6315" y="845" width="120" height="60" as="geometry" />
        </mxCell>
        <mxCell id="9BxBJnp0o42DT9YIsXTV-94" value="Tidak" style="text;html=1;align=center;verticalAlign=middle;resizable=0;points=[];autosize=1;strokeColor=none;fillColor=none;" vertex="1" parent="1">
          <mxGeometry x="6190" y="980" width="50" height="30" as="geometry" />
        </mxCell>
        <mxCell id="9BxBJnp0o42DT9YIsXTV-95" value="" style="endArrow=none;html=1;rounded=0;" edge="1" parent="1">
          <mxGeometry width="50" height="50" relative="1" as="geometry">
            <mxPoint x="6637" y="1016" as="sourcePoint" />
            <mxPoint x="6636.5" y="651" as="targetPoint" />
          </mxGeometry>
        </mxCell>
        <mxCell id="9BxBJnp0o42DT9YIsXTV-96" value="" style="endArrow=none;html=1;rounded=0;" edge="1" parent="1">
          <mxGeometry width="50" height="50" relative="1" as="geometry">
            <mxPoint x="6370" y="1015" as="sourcePoint" />
            <mxPoint x="6640" y="1015" as="targetPoint" />
          </mxGeometry>
        </mxCell>
        <mxCell id="9BxBJnp0o42DT9YIsXTV-97" value="Tidak" style="text;html=1;align=center;verticalAlign=middle;resizable=0;points=[];autosize=1;strokeColor=none;fillColor=none;" vertex="1" parent="1">
          <mxGeometry x="6510" y="980" width="50" height="30" as="geometry" />
        </mxCell>
        <mxCell id="9BxBJnp0o42DT9YIsXTV-98" value="&lt;b style=&quot;forced-color-adjust: none; color: rgb(0, 0, 0); font-family: Helvetica; font-size: 12px; font-style: normal; font-variant-ligatures: normal; font-variant-caps: normal; letter-spacing: normal; orphans: 2; text-indent: 0px; text-transform: none; widows: 2; word-spacing: 0px; -webkit-text-stroke-width: 0px; white-space: nowrap; text-decoration-thickness: initial; text-decoration-style: initial; text-decoration-color: initial; text-align: center; background-color: rgb(251, 251, 251);&quot;&gt;&lt;font style=&quot;forced-color-adjust: none; font-size: 24px;&quot;&gt;MENU SEWA MOBIL&lt;/font&gt;&lt;/b&gt;" style="text;whiteSpace=wrap;html=1;" vertex="1" parent="1">
          <mxGeometry x="5985" y="20" width="330" height="80" as="geometry" />
        </mxCell>
        <mxCell id="9BxBJnp0o42DT9YIsXTV-158" value="" style="edgeStyle=orthogonalEdgeStyle;rounded=0;orthogonalLoop=1;jettySize=auto;html=1;" edge="1" parent="1" source="9BxBJnp0o42DT9YIsXTV-99" target="9BxBJnp0o42DT9YIsXTV-157">
          <mxGeometry relative="1" as="geometry" />
        </mxCell>
        <mxCell id="9BxBJnp0o42DT9YIsXTV-99" value="C" style="ellipse;whiteSpace=wrap;html=1;aspect=fixed;" vertex="1" parent="1">
          <mxGeometry x="7120" width="60" height="60" as="geometry" />
        </mxCell>
        <mxCell id="9BxBJnp0o42DT9YIsXTV-105" value="" style="edgeStyle=orthogonalEdgeStyle;rounded=0;orthogonalLoop=1;jettySize=auto;html=1;" edge="1" parent="1" source="9BxBJnp0o42DT9YIsXTV-107" target="9BxBJnp0o42DT9YIsXTV-122">
          <mxGeometry relative="1" as="geometry" />
        </mxCell>
        <mxCell id="9BxBJnp0o42DT9YIsXTV-106" value="" style="edgeStyle=orthogonalEdgeStyle;rounded=0;orthogonalLoop=1;jettySize=auto;html=1;" edge="1" parent="1" source="9BxBJnp0o42DT9YIsXTV-107">
          <mxGeometry relative="1" as="geometry">
            <mxPoint x="7295" y="599" as="targetPoint" />
          </mxGeometry>
        </mxCell>
        <mxCell id="9BxBJnp0o42DT9YIsXTV-107" value="User Memilih Primary Key 4" style="rhombus;whiteSpace=wrap;html=1;" vertex="1" parent="1">
          <mxGeometry x="7102" y="552.5" width="97" height="95" as="geometry" />
        </mxCell>
        <mxCell id="9BxBJnp0o42DT9YIsXTV-108" value="" style="edgeStyle=orthogonalEdgeStyle;rounded=0;orthogonalLoop=1;jettySize=auto;html=1;" edge="1" parent="1" source="9BxBJnp0o42DT9YIsXTV-110" target="9BxBJnp0o42DT9YIsXTV-107">
          <mxGeometry relative="1" as="geometry" />
        </mxCell>
        <mxCell id="9BxBJnp0o42DT9YIsXTV-109" value="" style="edgeStyle=orthogonalEdgeStyle;rounded=0;orthogonalLoop=1;jettySize=auto;html=1;" edge="1" parent="1" source="9BxBJnp0o42DT9YIsXTV-110">
          <mxGeometry relative="1" as="geometry">
            <mxPoint x="7297.500148148473" y="482.5999999999999" as="targetPoint" />
          </mxGeometry>
        </mxCell>
        <mxCell id="9BxBJnp0o42DT9YIsXTV-110" value="User Memilih Primary Key 3" style="rhombus;whiteSpace=wrap;html=1;" vertex="1" parent="1">
          <mxGeometry x="7102" y="435" width="97" height="95" as="geometry" />
        </mxCell>
        <mxCell id="9BxBJnp0o42DT9YIsXTV-111" value="" style="edgeStyle=orthogonalEdgeStyle;rounded=0;orthogonalLoop=1;jettySize=auto;html=1;" edge="1" parent="1" source="9BxBJnp0o42DT9YIsXTV-113" target="9BxBJnp0o42DT9YIsXTV-110">
          <mxGeometry relative="1" as="geometry" />
        </mxCell>
        <mxCell id="9BxBJnp0o42DT9YIsXTV-112" value="" style="edgeStyle=orthogonalEdgeStyle;rounded=0;orthogonalLoop=1;jettySize=auto;html=1;" edge="1" parent="1" source="9BxBJnp0o42DT9YIsXTV-113">
          <mxGeometry relative="1" as="geometry">
            <mxPoint x="7297.500148148473" y="360.1" as="targetPoint" />
          </mxGeometry>
        </mxCell>
        <mxCell id="9BxBJnp0o42DT9YIsXTV-113" value="User Memilih Primary Key 2" style="rhombus;whiteSpace=wrap;html=1;" vertex="1" parent="1">
          <mxGeometry x="7102" y="312.5" width="97" height="95" as="geometry" />
        </mxCell>
        <mxCell id="9BxBJnp0o42DT9YIsXTV-114" value="" style="edgeStyle=orthogonalEdgeStyle;rounded=0;orthogonalLoop=1;jettySize=auto;html=1;" edge="1" parent="1" source="9BxBJnp0o42DT9YIsXTV-116" target="9BxBJnp0o42DT9YIsXTV-113">
          <mxGeometry relative="1" as="geometry" />
        </mxCell>
        <mxCell id="9BxBJnp0o42DT9YIsXTV-115" value="" style="edgeStyle=orthogonalEdgeStyle;rounded=0;orthogonalLoop=1;jettySize=auto;html=1;entryX=0;entryY=0.5;entryDx=0;entryDy=0;" edge="1" parent="1" source="9BxBJnp0o42DT9YIsXTV-116" target="9BxBJnp0o42DT9YIsXTV-137">
          <mxGeometry relative="1" as="geometry">
            <mxPoint x="7287.500148148473" y="242.60000000000002" as="targetPoint" />
          </mxGeometry>
        </mxCell>
        <mxCell id="9BxBJnp0o42DT9YIsXTV-116" value="User Memilih Primary Key 1" style="rhombus;whiteSpace=wrap;html=1;" vertex="1" parent="1">
          <mxGeometry x="7102" y="195" width="97" height="95" as="geometry" />
        </mxCell>
        <mxCell id="9BxBJnp0o42DT9YIsXTV-117" value="" style="edgeStyle=orthogonalEdgeStyle;rounded=0;orthogonalLoop=1;jettySize=auto;html=1;" edge="1" parent="1" source="9BxBJnp0o42DT9YIsXTV-119">
          <mxGeometry relative="1" as="geometry">
            <mxPoint x="7297.500148148473" y="832.5999999999999" as="targetPoint" />
          </mxGeometry>
        </mxCell>
        <mxCell id="9BxBJnp0o42DT9YIsXTV-118" value="" style="edgeStyle=orthogonalEdgeStyle;rounded=0;orthogonalLoop=1;jettySize=auto;html=1;entryX=0.5;entryY=1;entryDx=0;entryDy=0;" edge="1" parent="1" source="9BxBJnp0o42DT9YIsXTV-119" target="9BxBJnp0o42DT9YIsXTV-162">
          <mxGeometry relative="1" as="geometry">
            <mxPoint x="6960" y="190" as="targetPoint" />
          </mxGeometry>
        </mxCell>
        <mxCell id="9BxBJnp0o42DT9YIsXTV-119" value="User Memilih Primary Key 6" style="rhombus;whiteSpace=wrap;html=1;" vertex="1" parent="1">
          <mxGeometry x="7102" y="785" width="97" height="95" as="geometry" />
        </mxCell>
        <mxCell id="9BxBJnp0o42DT9YIsXTV-120" value="" style="edgeStyle=orthogonalEdgeStyle;rounded=0;orthogonalLoop=1;jettySize=auto;html=1;" edge="1" parent="1" source="9BxBJnp0o42DT9YIsXTV-122" target="9BxBJnp0o42DT9YIsXTV-119">
          <mxGeometry relative="1" as="geometry" />
        </mxCell>
        <mxCell id="9BxBJnp0o42DT9YIsXTV-121" value="" style="edgeStyle=orthogonalEdgeStyle;rounded=0;orthogonalLoop=1;jettySize=auto;html=1;" edge="1" parent="1" source="9BxBJnp0o42DT9YIsXTV-122">
          <mxGeometry relative="1" as="geometry">
            <mxPoint x="7297.500148148473" y="715.0999999999999" as="targetPoint" />
          </mxGeometry>
        </mxCell>
        <mxCell id="9BxBJnp0o42DT9YIsXTV-122" value="User Memilih Primary Key 5" style="rhombus;whiteSpace=wrap;html=1;" vertex="1" parent="1">
          <mxGeometry x="7102" y="667.5" width="97" height="95" as="geometry" />
        </mxCell>
        <mxCell id="9BxBJnp0o42DT9YIsXTV-123" value="YA" style="text;html=1;align=center;verticalAlign=middle;resizable=0;points=[];autosize=1;strokeColor=none;fillColor=none;" vertex="1" parent="1">
          <mxGeometry x="7195" y="218.75" width="40" height="30" as="geometry" />
        </mxCell>
        <mxCell id="9BxBJnp0o42DT9YIsXTV-124" value="YA" style="text;html=1;align=center;verticalAlign=middle;resizable=0;points=[];autosize=1;strokeColor=none;fillColor=none;" vertex="1" parent="1">
          <mxGeometry x="7195" y="335" width="40" height="30" as="geometry" />
        </mxCell>
        <mxCell id="9BxBJnp0o42DT9YIsXTV-125" value="YA" style="text;html=1;align=center;verticalAlign=middle;resizable=0;points=[];autosize=1;strokeColor=none;fillColor=none;" vertex="1" parent="1">
          <mxGeometry x="7195" y="455" width="40" height="30" as="geometry" />
        </mxCell>
        <mxCell id="9BxBJnp0o42DT9YIsXTV-126" value="YA" style="text;html=1;align=center;verticalAlign=middle;resizable=0;points=[];autosize=1;strokeColor=none;fillColor=none;" vertex="1" parent="1">
          <mxGeometry x="7195" y="576.25" width="40" height="30" as="geometry" />
        </mxCell>
        <mxCell id="9BxBJnp0o42DT9YIsXTV-127" value="YA" style="text;html=1;align=center;verticalAlign=middle;resizable=0;points=[];autosize=1;strokeColor=none;fillColor=none;" vertex="1" parent="1">
          <mxGeometry x="7199" y="798.75" width="40" height="30" as="geometry" />
        </mxCell>
        <mxCell id="9BxBJnp0o42DT9YIsXTV-128" value="YA" style="text;html=1;align=center;verticalAlign=middle;resizable=0;points=[];autosize=1;strokeColor=none;fillColor=none;" vertex="1" parent="1">
          <mxGeometry x="7195" y="685" width="40" height="30" as="geometry" />
        </mxCell>
        <mxCell id="9BxBJnp0o42DT9YIsXTV-129" value="Tidak" style="text;html=1;align=center;verticalAlign=middle;resizable=0;points=[];autosize=1;strokeColor=none;fillColor=none;" vertex="1" parent="1">
          <mxGeometry x="7145" y="755" width="50" height="30" as="geometry" />
        </mxCell>
        <mxCell id="9BxBJnp0o42DT9YIsXTV-130" value="Tidak" style="text;html=1;align=center;verticalAlign=middle;resizable=0;points=[];autosize=1;strokeColor=none;fillColor=none;" vertex="1" parent="1">
          <mxGeometry x="7145" y="283" width="50" height="30" as="geometry" />
        </mxCell>
        <mxCell id="9BxBJnp0o42DT9YIsXTV-131" value="Tidak" style="text;html=1;align=center;verticalAlign=middle;resizable=0;points=[];autosize=1;strokeColor=none;fillColor=none;" vertex="1" parent="1">
          <mxGeometry x="7145" y="637.5" width="50" height="30" as="geometry" />
        </mxCell>
        <mxCell id="9BxBJnp0o42DT9YIsXTV-132" value="Tidak" style="text;html=1;align=center;verticalAlign=middle;resizable=0;points=[];autosize=1;strokeColor=none;fillColor=none;" vertex="1" parent="1">
          <mxGeometry x="7150" y="520" width="50" height="30" as="geometry" />
        </mxCell>
        <mxCell id="9BxBJnp0o42DT9YIsXTV-133" value="Tidak" style="text;html=1;align=center;verticalAlign=middle;resizable=0;points=[];autosize=1;strokeColor=none;fillColor=none;" vertex="1" parent="1">
          <mxGeometry x="7145" y="405" width="50" height="30" as="geometry" />
        </mxCell>
        <mxCell id="9BxBJnp0o42DT9YIsXTV-134" value="" style="edgeStyle=orthogonalEdgeStyle;rounded=0;orthogonalLoop=1;jettySize=auto;html=1;" edge="1" parent="1" source="9BxBJnp0o42DT9YIsXTV-135" target="9BxBJnp0o42DT9YIsXTV-147">
          <mxGeometry relative="1" as="geometry" />
        </mxCell>
        <mxCell id="9BxBJnp0o42DT9YIsXTV-135" value="Mengembalikkan Mobil yang sedang disewa" style="whiteSpace=wrap;html=1;fontStyle=0;" vertex="1" parent="1">
          <mxGeometry x="7297.5" y="332.5" width="110" height="55" as="geometry" />
        </mxCell>
        <mxCell id="9BxBJnp0o42DT9YIsXTV-136" value="" style="edgeStyle=orthogonalEdgeStyle;rounded=0;orthogonalLoop=1;jettySize=auto;html=1;" edge="1" parent="1" source="9BxBJnp0o42DT9YIsXTV-137" target="9BxBJnp0o42DT9YIsXTV-146">
          <mxGeometry relative="1" as="geometry" />
        </mxCell>
        <mxCell id="9BxBJnp0o42DT9YIsXTV-137" value="Mengembalikkan Mobil yang sedang disewa" style="whiteSpace=wrap;html=1;fontStyle=0;" vertex="1" parent="1">
          <mxGeometry x="7297.5" y="215" width="110" height="55" as="geometry" />
        </mxCell>
        <mxCell id="9BxBJnp0o42DT9YIsXTV-138" value="" style="edgeStyle=orthogonalEdgeStyle;rounded=0;orthogonalLoop=1;jettySize=auto;html=1;" edge="1" parent="1" source="9BxBJnp0o42DT9YIsXTV-139" target="9BxBJnp0o42DT9YIsXTV-148">
          <mxGeometry relative="1" as="geometry" />
        </mxCell>
        <mxCell id="9BxBJnp0o42DT9YIsXTV-139" value="Mengembalikkan Mobil yang sedang disewa" style="whiteSpace=wrap;html=1;fontStyle=0;" vertex="1" parent="1">
          <mxGeometry x="7297.5" y="455" width="110" height="55" as="geometry" />
        </mxCell>
        <mxCell id="9BxBJnp0o42DT9YIsXTV-140" value="" style="edgeStyle=orthogonalEdgeStyle;rounded=0;orthogonalLoop=1;jettySize=auto;html=1;" edge="1" parent="1" source="9BxBJnp0o42DT9YIsXTV-141" target="9BxBJnp0o42DT9YIsXTV-149">
          <mxGeometry relative="1" as="geometry" />
        </mxCell>
        <mxCell id="9BxBJnp0o42DT9YIsXTV-141" value="Mengembalikkan Mobil yang sedang disewa" style="whiteSpace=wrap;html=1;fontStyle=0;" vertex="1" parent="1">
          <mxGeometry x="7297.5" y="570" width="110" height="55" as="geometry" />
        </mxCell>
        <mxCell id="9BxBJnp0o42DT9YIsXTV-142" value="" style="edgeStyle=orthogonalEdgeStyle;rounded=0;orthogonalLoop=1;jettySize=auto;html=1;" edge="1" parent="1" source="9BxBJnp0o42DT9YIsXTV-143" target="9BxBJnp0o42DT9YIsXTV-150">
          <mxGeometry relative="1" as="geometry" />
        </mxCell>
        <mxCell id="9BxBJnp0o42DT9YIsXTV-143" value="Mengembalikkan Mobil yang sedang disewa" style="whiteSpace=wrap;html=1;fontStyle=0;" vertex="1" parent="1">
          <mxGeometry x="7297.5" y="687.5" width="110" height="55" as="geometry" />
        </mxCell>
        <mxCell id="9BxBJnp0o42DT9YIsXTV-144" value="" style="edgeStyle=orthogonalEdgeStyle;rounded=0;orthogonalLoop=1;jettySize=auto;html=1;" edge="1" parent="1" source="9BxBJnp0o42DT9YIsXTV-145" target="9BxBJnp0o42DT9YIsXTV-151">
          <mxGeometry relative="1" as="geometry" />
        </mxCell>
        <mxCell id="9BxBJnp0o42DT9YIsXTV-145" value="Mengembalikkan Mobil yang sedang disewa" style="whiteSpace=wrap;html=1;fontStyle=0;" vertex="1" parent="1">
          <mxGeometry x="7297.5" y="805" width="110" height="55" as="geometry" />
        </mxCell>
        <mxCell id="9BxBJnp0o42DT9YIsXTV-166" value="" style="edgeStyle=orthogonalEdgeStyle;rounded=0;orthogonalLoop=1;jettySize=auto;html=1;" edge="1" parent="1" source="9BxBJnp0o42DT9YIsXTV-146" target="9BxBJnp0o42DT9YIsXTV-165">
          <mxGeometry relative="1" as="geometry" />
        </mxCell>
        <mxCell id="9BxBJnp0o42DT9YIsXTV-146" value="Mobil .... Berhasil dikembalikan" style="whiteSpace=wrap;html=1;fontStyle=0;" vertex="1" parent="1">
          <mxGeometry x="7450" y="215" width="110" height="55" as="geometry" />
        </mxCell>
        <mxCell id="9BxBJnp0o42DT9YIsXTV-175" value="" style="edgeStyle=orthogonalEdgeStyle;rounded=0;orthogonalLoop=1;jettySize=auto;html=1;" edge="1" parent="1" source="9BxBJnp0o42DT9YIsXTV-147" target="9BxBJnp0o42DT9YIsXTV-167">
          <mxGeometry relative="1" as="geometry" />
        </mxCell>
        <mxCell id="9BxBJnp0o42DT9YIsXTV-147" value="Mobil .... Berhasil dikembalikan" style="whiteSpace=wrap;html=1;fontStyle=0;" vertex="1" parent="1">
          <mxGeometry x="7450" y="332.5" width="110" height="55" as="geometry" />
        </mxCell>
        <mxCell id="9BxBJnp0o42DT9YIsXTV-174" value="" style="edgeStyle=orthogonalEdgeStyle;rounded=0;orthogonalLoop=1;jettySize=auto;html=1;" edge="1" parent="1" source="9BxBJnp0o42DT9YIsXTV-148" target="9BxBJnp0o42DT9YIsXTV-170">
          <mxGeometry relative="1" as="geometry" />
        </mxCell>
        <mxCell id="9BxBJnp0o42DT9YIsXTV-148" value="Mobil .... Berhasil dikembalikan" style="whiteSpace=wrap;html=1;fontStyle=0;" vertex="1" parent="1">
          <mxGeometry x="7450" y="455" width="110" height="55" as="geometry" />
        </mxCell>
        <mxCell id="9BxBJnp0o42DT9YIsXTV-173" value="" style="edgeStyle=orthogonalEdgeStyle;rounded=0;orthogonalLoop=1;jettySize=auto;html=1;" edge="1" parent="1" source="9BxBJnp0o42DT9YIsXTV-149" target="9BxBJnp0o42DT9YIsXTV-169">
          <mxGeometry relative="1" as="geometry" />
        </mxCell>
        <mxCell id="9BxBJnp0o42DT9YIsXTV-149" value="Mobil .... Berhasil dikembalikan" style="whiteSpace=wrap;html=1;fontStyle=0;" vertex="1" parent="1">
          <mxGeometry x="7450" y="570" width="110" height="55" as="geometry" />
        </mxCell>
        <mxCell id="9BxBJnp0o42DT9YIsXTV-172" value="" style="edgeStyle=orthogonalEdgeStyle;rounded=0;orthogonalLoop=1;jettySize=auto;html=1;" edge="1" parent="1" source="9BxBJnp0o42DT9YIsXTV-150" target="9BxBJnp0o42DT9YIsXTV-168">
          <mxGeometry relative="1" as="geometry" />
        </mxCell>
        <mxCell id="9BxBJnp0o42DT9YIsXTV-150" value="Mobil .... Berhasil dikembalikan" style="whiteSpace=wrap;html=1;fontStyle=0;" vertex="1" parent="1">
          <mxGeometry x="7450" y="687.5" width="110" height="55" as="geometry" />
        </mxCell>
        <mxCell id="9BxBJnp0o42DT9YIsXTV-317" value="" style="edgeStyle=orthogonalEdgeStyle;rounded=0;orthogonalLoop=1;jettySize=auto;html=1;" edge="1" parent="1" source="9BxBJnp0o42DT9YIsXTV-151" target="9BxBJnp0o42DT9YIsXTV-171">
          <mxGeometry relative="1" as="geometry" />
        </mxCell>
        <mxCell id="9BxBJnp0o42DT9YIsXTV-151" value="Mobil .... Berhasil dikembalikan" style="whiteSpace=wrap;html=1;fontStyle=0;" vertex="1" parent="1">
          <mxGeometry x="7450" y="805" width="110" height="55" as="geometry" />
        </mxCell>
        <mxCell id="9BxBJnp0o42DT9YIsXTV-152" value="Tidak" style="text;html=1;align=center;verticalAlign=middle;resizable=0;points=[];autosize=1;strokeColor=none;fillColor=none;" vertex="1" parent="1">
          <mxGeometry x="7040" y="802.5" width="50" height="30" as="geometry" />
        </mxCell>
        <mxCell id="9BxBJnp0o42DT9YIsXTV-160" value="" style="edgeStyle=orthogonalEdgeStyle;rounded=0;orthogonalLoop=1;jettySize=auto;html=1;" edge="1" parent="1">
          <mxGeometry relative="1" as="geometry">
            <mxPoint x="7150" y="166" as="sourcePoint" />
            <mxPoint x="7150" y="196" as="targetPoint" />
          </mxGeometry>
        </mxCell>
        <mxCell id="9BxBJnp0o42DT9YIsXTV-163" value="" style="edgeStyle=orthogonalEdgeStyle;rounded=0;orthogonalLoop=1;jettySize=auto;html=1;entryX=1;entryY=0.583;entryDx=0;entryDy=0;entryPerimeter=0;" edge="1" parent="1" source="9BxBJnp0o42DT9YIsXTV-157" target="9BxBJnp0o42DT9YIsXTV-162">
          <mxGeometry relative="1" as="geometry">
            <mxPoint x="7020" y="120" as="targetPoint" />
          </mxGeometry>
        </mxCell>
        <mxCell id="9BxBJnp0o42DT9YIsXTV-157" value="Menamilkan Daftar Mobil yang sedang disewa" style="rhombus;whiteSpace=wrap;html=1;" vertex="1" parent="1">
          <mxGeometry x="7100" y="75" width="100" height="100" as="geometry" />
        </mxCell>
        <mxCell id="9BxBJnp0o42DT9YIsXTV-161" value="YA" style="text;html=1;align=center;verticalAlign=middle;resizable=0;points=[];autosize=1;strokeColor=none;fillColor=none;" vertex="1" parent="1">
          <mxGeometry x="7145" y="165" width="40" height="30" as="geometry" />
        </mxCell>
        <mxCell id="9BxBJnp0o42DT9YIsXTV-162" value="Daftar Menu User" style="rounded=1;whiteSpace=wrap;html=1;" vertex="1" parent="1">
          <mxGeometry x="6900" y="90" width="120" height="60" as="geometry" />
        </mxCell>
        <mxCell id="9BxBJnp0o42DT9YIsXTV-164" value="Tidak" style="text;html=1;align=center;verticalAlign=middle;resizable=0;points=[];autosize=1;strokeColor=none;fillColor=none;" vertex="1" parent="1">
          <mxGeometry x="7040" y="95" width="50" height="30" as="geometry" />
        </mxCell>
        <mxCell id="9BxBJnp0o42DT9YIsXTV-165" value="B" style="ellipse;whiteSpace=wrap;html=1;aspect=fixed;" vertex="1" parent="1">
          <mxGeometry x="7590" y="212.5" width="60" height="60" as="geometry" />
        </mxCell>
        <mxCell id="9BxBJnp0o42DT9YIsXTV-167" value="B" style="ellipse;whiteSpace=wrap;html=1;aspect=fixed;" vertex="1" parent="1">
          <mxGeometry x="7590" y="329.5" width="60" height="60" as="geometry" />
        </mxCell>
        <mxCell id="9BxBJnp0o42DT9YIsXTV-168" value="B" style="ellipse;whiteSpace=wrap;html=1;aspect=fixed;" vertex="1" parent="1">
          <mxGeometry x="7590" y="685" width="60" height="60" as="geometry" />
        </mxCell>
        <mxCell id="9BxBJnp0o42DT9YIsXTV-169" value="B" style="ellipse;whiteSpace=wrap;html=1;aspect=fixed;" vertex="1" parent="1">
          <mxGeometry x="7590" y="567.5" width="60" height="60" as="geometry" />
        </mxCell>
        <mxCell id="9BxBJnp0o42DT9YIsXTV-170" value="B" style="ellipse;whiteSpace=wrap;html=1;aspect=fixed;" vertex="1" parent="1">
          <mxGeometry x="7590" y="452.5" width="60" height="60" as="geometry" />
        </mxCell>
        <mxCell id="9BxBJnp0o42DT9YIsXTV-171" value="B" style="ellipse;whiteSpace=wrap;html=1;aspect=fixed;" vertex="1" parent="1">
          <mxGeometry x="7590" y="802.5" width="60" height="60" as="geometry" />
        </mxCell>
        <mxCell id="9BxBJnp0o42DT9YIsXTV-176" value="&lt;b style=&quot;forced-color-adjust: none; color: rgb(0, 0, 0); font-family: Helvetica; font-size: 12px; font-style: normal; font-variant-ligatures: normal; font-variant-caps: normal; letter-spacing: normal; orphans: 2; text-indent: 0px; text-transform: none; widows: 2; word-spacing: 0px; -webkit-text-stroke-width: 0px; white-space: nowrap; text-decoration-thickness: initial; text-decoration-style: initial; text-decoration-color: initial; text-align: center; background-color: rgb(251, 251, 251);&quot;&gt;&lt;font style=&quot;forced-color-adjust: none; font-size: 24px;&quot;&gt;MENU MENGEMBALIKAN&lt;/font&gt;&lt;/b&gt;&lt;div&gt;&lt;b style=&quot;forced-color-adjust: none; color: rgb(0, 0, 0); font-family: Helvetica; font-size: 12px; font-style: normal; font-variant-ligatures: normal; font-variant-caps: normal; letter-spacing: normal; orphans: 2; text-indent: 0px; text-transform: none; widows: 2; word-spacing: 0px; -webkit-text-stroke-width: 0px; white-space: nowrap; text-decoration-thickness: initial; text-decoration-style: initial; text-decoration-color: initial; text-align: center; background-color: rgb(251, 251, 251);&quot;&gt;&lt;font style=&quot;forced-color-adjust: none; font-size: 24px;&quot;&gt;&lt;span style=&quot;white-space: pre;&quot;&gt;&#x9;&lt;/span&gt;&lt;span style=&quot;white-space: pre;&quot;&gt;&#x9;&lt;/span&gt;MOBIL&lt;/font&gt;&lt;/b&gt;&lt;/div&gt;" style="text;whiteSpace=wrap;html=1;" vertex="1" parent="1">
          <mxGeometry x="6800" width="330" height="80" as="geometry" />
        </mxCell>
      </root>
    </mxGraphModel>
  </diagram>
</mxfile>
